<svg width="169" height="40" viewBox="0 0 169 40" fill="none" xmlns="http://www.w3.org/2000/svg">
<g clip-path="url(#clip0_6_281)">
<path d="M49.4309 24.9402C45.601 36.0707 36.5052 38.1053 25.1353 38.1053C28.9651 26.2567 39.0185 22.0678 49.4309 24.9402Z" fill="url(#paint0_linear_6_281)" stroke="white" stroke-width="2" stroke-linecap="round" stroke-linejoin="round"/>
<path d="M1.65371 24.9402C5.48357 36.0707 14.5794 38.1053 25.9493 38.1053C22.1194 26.2567 12.0661 22.0678 1.65371 24.9402Z" fill="url(#paint1_linear_6_281)" stroke="white" stroke-width="2" stroke-linecap="round" stroke-linejoin="round"/>
<path d="M43.2616 9.09473C45.8084 20.5724 37.7468 29.7768 26.0585 35.0721C26.0585 24.1284 30.8637 10.9489 43.2616 9.09473Z" fill="url(#paint2_linear_6_281)" stroke="white" stroke-width="2" stroke-linecap="round" stroke-linejoin="round"/>
<path d="M8.42844 9.09473C5.88162 20.5724 13.9433 29.7768 25.6316 35.0721C25.6316 24.1284 20.8264 10.9489 8.42844 9.09473Z" fill="url(#paint3_linear_6_281)" stroke="white" stroke-width="2" stroke-linecap="round" stroke-linejoin="round"/>
<path d="M25.6644 36.7003C35.5427 29.2085 35.6363 10.3881 25.6644 1.68829C14.9743 10.2328 15.4199 29.5352 25.6644 36.7003Z" fill="url(#paint4_linear_6_281)" stroke="white" stroke-width="2" stroke-linecap="round" stroke-linejoin="round"/>
<path d="M25.7987 11.5779L36.8608 17.9416V30.6688L25.7987 37.0325L14.7367 30.6688V17.9416L25.7987 11.5779Z" fill="black"/>
<path fill-rule="evenodd" clip-rule="evenodd" d="M24.9718 24.5717L16.2295 19.7259V23.9675L19.2566 25.7151V23.9484L21.3976 25.138V26.9513L24.9718 29.0148V24.5717ZM16.2295 26.1083L19.2566 27.856V29.8955L21.3976 31.0852V29.0921L24.9718 31.1557V34.8949L16.2295 29.8475V26.1083ZM26.5303 34.8949V31.1557L29.9618 29.1745V31.085L32.1028 29.7766V27.9384L35.2726 26.1083V29.8475L26.5303 34.8949ZM32.1028 25.7975L35.2726 23.9675V19.7259L26.5303 24.5717V29.0148L29.9618 27.0337V25.1378L32.1028 23.8294V25.7975Z" fill="url(#paint5_angular_6_281)"/>
<path fill-rule="evenodd" clip-rule="evenodd" d="M17.0374 18.3865L25.751 13.3557L34.4647 18.3865L25.751 23.178L17.0374 18.3865Z" fill="url(#paint6_angular_6_281)"/>
<path d="M26.2974 10.7111C25.9887 10.5335 25.6088 10.5335 25.3001 10.7111L14.238 17.0747C13.9279 17.2532 13.7367 17.5837 13.7367 17.9416V30.6688C13.7367 31.0267 13.9279 31.3572 14.238 31.5356L25.3001 37.8993C25.6088 38.0769 25.9887 38.0769 26.2974 37.8993L37.3594 31.5356C37.6696 31.3572 37.8608 31.0267 37.8608 30.6688V17.9416C37.8608 17.5837 37.6696 17.2532 37.3594 17.0747L26.2974 10.7111Z" stroke="white" stroke-width="2" stroke-linejoin="round"/>
<mask id="path-10-outside-1_6_281" maskUnits="userSpaceOnUse" x="52.291" y="15.7269" width="64" height="22" fill="black">
<rect fill="white" x="52.291" y="15.7269" width="64" height="22"/>
<path d="M69.0175 26.6808V27.4519L68.0261 27.474V34.3262H67.321L65.7126 33.2246C65.1397 33.6799 64.5155 34.0325 63.8398 34.2822C63.1788 34.5319 62.5031 34.6567 61.8128 34.6567C60.5202 34.6567 59.3818 34.363 58.3977 33.7754C57.4135 33.1732 56.6497 32.3359 56.1062 31.2637C55.5628 30.1767 55.291 28.9208 55.291 27.496C55.291 26.1447 55.5334 24.8667 56.0181 23.6623C56.5175 22.4578 57.1491 21.4957 57.9129 20.776C58.6621 20.2912 59.4626 19.924 60.3145 19.6743C61.1812 19.4099 62.0331 19.2777 62.8704 19.2777C63.9867 19.2777 65.0076 19.5201 65.9329 20.0048C66.873 20.4748 67.6148 21.1358 68.1583 21.9878L65.4482 24.2572C64.6403 22.8911 63.7223 21.437 62.6941 19.8946C61.6806 20.3353 60.8507 21.1505 60.2044 22.3403C59.5581 23.5301 59.2349 24.8814 59.2349 26.3944C59.2349 28.2598 59.6535 29.7287 60.4908 30.801C61.3427 31.8585 62.5031 32.3873 63.972 32.3873C64.207 32.3873 64.3833 32.38 64.5008 32.3653V27.474L63.4212 27.4519V26.6808H69.0175Z"/>
<path d="M71.0475 19.7624L73.8677 19.1235V21.6352L71.0475 22.0539V19.7624ZM74.0881 33.6212L74.9033 33.6873V34.3262H70.1662V33.6873L70.9814 33.6212L70.9153 25.7774L70.0781 25.9537L69.8577 25.3148L73.8457 24.0809L74.1542 24.6097L74.0881 33.6212Z"/>
<path d="M75.7953 33.6873L76.6105 33.6212L76.5003 20.4234L75.6631 20.5997L75.4427 19.9607L79.5188 18.7269L79.8273 19.2557L79.7171 33.6212L80.5323 33.6873V34.3262H75.7953V33.6873Z"/>
<path d="M92.1673 32.806L88.9505 34.5466C88.5539 34.3115 88.2601 34.0031 88.0692 33.6212C87.8929 33.2246 87.7901 32.7178 87.7607 32.1009L85.5794 34.6567C84.7275 34.6567 83.971 34.4658 83.31 34.0839C82.6637 33.6873 82.157 33.1511 81.7898 32.4755C81.4226 31.7851 81.2389 31.0066 81.2389 30.14C81.2389 29.3908 81.3638 28.5977 81.6135 27.7604C81.8632 26.9232 82.1643 26.2695 82.5169 25.7995C82.7959 25.4029 83.3027 25.021 84.0371 24.6538C84.7716 24.2719 85.3885 24.0809 85.8879 24.0809C86.3286 24.0809 86.9308 24.1543 87.6946 24.3012L87.6505 20.4234L86.8133 20.5997L86.593 19.9607L90.6691 18.7269L90.9775 19.2557L90.8453 30.6688C90.8453 31.1976 90.8747 31.5941 90.9335 31.8585C90.9922 32.1082 91.095 32.3286 91.2419 32.5195L91.9029 32.2111L92.1673 32.806ZM84.4117 28.818C84.4117 29.4937 84.5219 30.0812 84.7422 30.5806C84.9625 31.08 85.2489 31.4619 85.6015 31.7263C85.9687 31.9907 86.3579 32.1229 86.7692 32.1229L87.7607 31.1315L87.7166 26.6808C86.7619 26.2254 85.8438 25.917 84.9625 25.7554C84.5953 26.5927 84.4117 27.6135 84.4117 28.818Z"/>
<path d="M97.8399 24.0809C99.1325 24.0809 100.146 24.5509 100.88 25.491C101.63 26.4164 101.997 27.6723 101.982 29.2587L95.901 29.4569C96.0038 30.3236 96.305 30.9846 96.8044 31.4399C97.3038 31.8953 97.9648 32.1229 98.7873 32.1229C99.933 32.1229 100.866 31.8071 101.586 31.1755L101.982 31.528C101.468 32.5122 100.77 33.2833 99.889 33.8415C99.0224 34.385 98.097 34.6567 97.1128 34.6567C95.7762 34.6567 94.7112 34.2161 93.9181 33.3347C93.1396 32.4387 92.7503 31.2343 92.7503 29.7213C92.7503 28.8253 92.9266 27.9367 93.2791 27.0554C93.6463 26.174 94.109 25.4396 94.6672 24.8521C95.0491 24.6317 95.5411 24.4481 96.1434 24.3012C96.7456 24.1543 97.3111 24.0809 97.8399 24.0809ZM98.7212 28.5316C98.7065 27.5034 98.5597 26.6881 98.2806 26.0859C98.0015 25.4837 97.6049 25.1238 97.0908 25.0063C96.7236 25.3882 96.4225 25.9243 96.1874 26.6147C95.9671 27.2904 95.857 27.9881 95.857 28.7078V28.7739L98.7212 28.5316Z"/>
<path d="M113.619 32.806L110.402 34.5466C110.006 34.3115 109.712 34.0031 109.521 33.6212C109.345 33.2246 109.242 32.7178 109.213 32.1009L107.031 34.6567C106.18 34.6567 105.423 34.4658 104.762 34.0839C104.116 33.6873 103.609 33.1511 103.242 32.4755C102.875 31.7851 102.691 31.0066 102.691 30.14C102.691 29.3908 102.816 28.5977 103.066 27.7604C103.315 26.9232 103.616 26.2695 103.969 25.7995C104.248 25.4029 104.755 25.021 105.489 24.6538C106.224 24.2719 106.84 24.0809 107.34 24.0809C107.781 24.0809 108.383 24.1543 109.147 24.3012L109.103 20.4234L108.265 20.5997L108.045 19.9607L112.121 18.7269L112.43 19.2557L112.297 30.6688C112.297 31.1976 112.327 31.5941 112.385 31.8585C112.444 32.1082 112.547 32.3286 112.694 32.5195L113.355 32.2111L113.619 32.806ZM105.864 28.818C105.864 29.4937 105.974 30.0812 106.194 30.5806C106.415 31.08 106.701 31.4619 107.053 31.7263C107.421 31.9907 107.81 32.1229 108.221 32.1229L109.213 31.1315L109.169 26.6808C108.214 26.2254 107.296 25.917 106.415 25.7554C106.047 26.5927 105.864 27.6135 105.864 28.818Z"/>
</mask>
<path d="M69.0175 26.6808V27.4519L68.0261 27.474V34.3262H67.321L65.7126 33.2246C65.1397 33.6799 64.5155 34.0325 63.8398 34.2822C63.1788 34.5319 62.5031 34.6567 61.8128 34.6567C60.5202 34.6567 59.3818 34.363 58.3977 33.7754C57.4135 33.1732 56.6497 32.3359 56.1062 31.2637C55.5628 30.1767 55.291 28.9208 55.291 27.496C55.291 26.1447 55.5334 24.8667 56.0181 23.6623C56.5175 22.4578 57.1491 21.4957 57.9129 20.776C58.6621 20.2912 59.4626 19.924 60.3145 19.6743C61.1812 19.4099 62.0331 19.2777 62.8704 19.2777C63.9867 19.2777 65.0076 19.5201 65.9329 20.0048C66.873 20.4748 67.6148 21.1358 68.1583 21.9878L65.4482 24.2572C64.6403 22.8911 63.7223 21.437 62.6941 19.8946C61.6806 20.3353 60.8507 21.1505 60.2044 22.3403C59.5581 23.5301 59.2349 24.8814 59.2349 26.3944C59.2349 28.2598 59.6535 29.7287 60.4908 30.801C61.3427 31.8585 62.5031 32.3873 63.972 32.3873C64.207 32.3873 64.3833 32.38 64.5008 32.3653V27.474L63.4212 27.4519V26.6808H69.0175Z" fill="url(#paint7_linear_6_281)"/>
<path d="M71.0475 19.7624L73.8677 19.1235V21.6352L71.0475 22.0539V19.7624ZM74.0881 33.6212L74.9033 33.6873V34.3262H70.1662V33.6873L70.9814 33.6212L70.9153 25.7774L70.0781 25.9537L69.8577 25.3148L73.8457 24.0809L74.1542 24.6097L74.0881 33.6212Z" fill="url(#paint8_linear_6_281)"/>
<path d="M75.7953 33.6873L76.6105 33.6212L76.5003 20.4234L75.6631 20.5997L75.4427 19.9607L79.5188 18.7269L79.8273 19.2557L79.7171 33.6212L80.5323 33.6873V34.3262H75.7953V33.6873Z" fill="url(#paint9_linear_6_281)"/>
<path d="M92.1673 32.806L88.9505 34.5466C88.5539 34.3115 88.2601 34.0031 88.0692 33.6212C87.8929 33.2246 87.7901 32.7178 87.7607 32.1009L85.5794 34.6567C84.7275 34.6567 83.971 34.4658 83.31 34.0839C82.6637 33.6873 82.157 33.1511 81.7898 32.4755C81.4226 31.7851 81.2389 31.0066 81.2389 30.14C81.2389 29.3908 81.3638 28.5977 81.6135 27.7604C81.8632 26.9232 82.1643 26.2695 82.5169 25.7995C82.7959 25.4029 83.3027 25.021 84.0371 24.6538C84.7716 24.2719 85.3885 24.0809 85.8879 24.0809C86.3286 24.0809 86.9308 24.1543 87.6946 24.3012L87.6505 20.4234L86.8133 20.5997L86.593 19.9607L90.6691 18.7269L90.9775 19.2557L90.8453 30.6688C90.8453 31.1976 90.8747 31.5941 90.9335 31.8585C90.9922 32.1082 91.095 32.3286 91.2419 32.5195L91.9029 32.2111L92.1673 32.806ZM84.4117 28.818C84.4117 29.4937 84.5219 30.0812 84.7422 30.5806C84.9625 31.08 85.2489 31.4619 85.6015 31.7263C85.9687 31.9907 86.3579 32.1229 86.7692 32.1229L87.7607 31.1315L87.7166 26.6808C86.7619 26.2254 85.8438 25.917 84.9625 25.7554C84.5953 26.5927 84.4117 27.6135 84.4117 28.818Z" fill="url(#paint10_linear_6_281)"/>
<path d="M97.8399 24.0809C99.1325 24.0809 100.146 24.5509 100.88 25.491C101.63 26.4164 101.997 27.6723 101.982 29.2587L95.901 29.4569C96.0038 30.3236 96.305 30.9846 96.8044 31.4399C97.3038 31.8953 97.9648 32.1229 98.7873 32.1229C99.933 32.1229 100.866 31.8071 101.586 31.1755L101.982 31.528C101.468 32.5122 100.77 33.2833 99.889 33.8415C99.0224 34.385 98.097 34.6567 97.1128 34.6567C95.7762 34.6567 94.7112 34.2161 93.9181 33.3347C93.1396 32.4387 92.7503 31.2343 92.7503 29.7213C92.7503 28.8253 92.9266 27.9367 93.2791 27.0554C93.6463 26.174 94.109 25.4396 94.6672 24.8521C95.0491 24.6317 95.5411 24.4481 96.1434 24.3012C96.7456 24.1543 97.3111 24.0809 97.8399 24.0809ZM98.7212 28.5316C98.7065 27.5034 98.5597 26.6881 98.2806 26.0859C98.0015 25.4837 97.6049 25.1238 97.0908 25.0063C96.7236 25.3882 96.4225 25.9243 96.1874 26.6147C95.9671 27.2904 95.857 27.9881 95.857 28.7078V28.7739L98.7212 28.5316Z" fill="url(#paint11_linear_6_281)"/>
<path d="M113.619 32.806L110.402 34.5466C110.006 34.3115 109.712 34.0031 109.521 33.6212C109.345 33.2246 109.242 32.7178 109.213 32.1009L107.031 34.6567C106.18 34.6567 105.423 34.4658 104.762 34.0839C104.116 33.6873 103.609 33.1511 103.242 32.4755C102.875 31.7851 102.691 31.0066 102.691 30.14C102.691 29.3908 102.816 28.5977 103.066 27.7604C103.315 26.9232 103.616 26.2695 103.969 25.7995C104.248 25.4029 104.755 25.021 105.489 24.6538C106.224 24.2719 106.84 24.0809 107.34 24.0809C107.781 24.0809 108.383 24.1543 109.147 24.3012L109.103 20.4234L108.265 20.5997L108.045 19.9607L112.121 18.7269L112.43 19.2557L112.297 30.6688C112.297 31.1976 112.327 31.5941 112.385 31.8585C112.444 32.1082 112.547 32.3286 112.694 32.5195L113.355 32.2111L113.619 32.806ZM105.864 28.818C105.864 29.4937 105.974 30.0812 106.194 30.5806C106.415 31.08 106.701 31.4619 107.053 31.7263C107.421 31.9907 107.81 32.1229 108.221 32.1229L109.213 31.1315L109.169 26.6808C108.214 26.2254 107.296 25.917 106.415 25.7554C106.047 26.5927 105.864 27.6135 105.864 28.818Z" fill="url(#paint12_linear_6_281)"/>
<path d="M69.0175 26.6808V27.4519L68.0261 27.474V34.3262H67.321L65.7126 33.2246C65.1397 33.6799 64.5155 34.0325 63.8398 34.2822C63.1788 34.5319 62.5031 34.6567 61.8128 34.6567C60.5202 34.6567 59.3818 34.363 58.3977 33.7754C57.4135 33.1732 56.6497 32.3359 56.1062 31.2637C55.5628 30.1767 55.291 28.9208 55.291 27.496C55.291 26.1447 55.5334 24.8667 56.0181 23.6623C56.5175 22.4578 57.1491 21.4957 57.9129 20.776C58.6621 20.2912 59.4626 19.924 60.3145 19.6743C61.1812 19.4099 62.0331 19.2777 62.8704 19.2777C63.9867 19.2777 65.0076 19.5201 65.9329 20.0048C66.873 20.4748 67.6148 21.1358 68.1583 21.9878L65.4482 24.2572C64.6403 22.8911 63.7223 21.437 62.6941 19.8946C61.6806 20.3353 60.8507 21.1505 60.2044 22.3403C59.5581 23.5301 59.2349 24.8814 59.2349 26.3944C59.2349 28.2598 59.6535 29.7287 60.4908 30.801C61.3427 31.8585 62.5031 32.3873 63.972 32.3873C64.207 32.3873 64.3833 32.38 64.5008 32.3653V27.474L63.4212 27.4519V26.6808H69.0175Z" stroke="white" stroke-width="5" stroke-linecap="round" stroke-linejoin="round" mask="url(#path-10-outside-1_6_281)"/>
<path d="M71.0475 19.7624L73.8677 19.1235V21.6352L71.0475 22.0539V19.7624ZM74.0881 33.6212L74.9033 33.6873V34.3262H70.1662V33.6873L70.9814 33.6212L70.9153 25.7774L70.0781 25.9537L69.8577 25.3148L73.8457 24.0809L74.1542 24.6097L74.0881 33.6212Z" stroke="white" stroke-width="5" stroke-linecap="round" stroke-linejoin="round" mask="url(#path-10-outside-1_6_281)"/>
<path d="M75.7953 33.6873L76.6105 33.6212L76.5003 20.4234L75.6631 20.5997L75.4427 19.9607L79.5188 18.7269L79.8273 19.2557L79.7171 33.6212L80.5323 33.6873V34.3262H75.7953V33.6873Z" stroke="white" stroke-width="5" stroke-linecap="round" stroke-linejoin="round" mask="url(#path-10-outside-1_6_281)"/>
<path d="M92.1673 32.806L88.9505 34.5466C88.5539 34.3115 88.2601 34.0031 88.0692 33.6212C87.8929 33.2246 87.7901 32.7178 87.7607 32.1009L85.5794 34.6567C84.7275 34.6567 83.971 34.4658 83.31 34.0839C82.6637 33.6873 82.157 33.1511 81.7898 32.4755C81.4226 31.7851 81.2389 31.0066 81.2389 30.14C81.2389 29.3908 81.3638 28.5977 81.6135 27.7604C81.8632 26.9232 82.1643 26.2695 82.5169 25.7995C82.7959 25.4029 83.3027 25.021 84.0371 24.6538C84.7716 24.2719 85.3885 24.0809 85.8879 24.0809C86.3286 24.0809 86.9308 24.1543 87.6946 24.3012L87.6505 20.4234L86.8133 20.5997L86.593 19.9607L90.6691 18.7269L90.9775 19.2557L90.8453 30.6688C90.8453 31.1976 90.8747 31.5941 90.9335 31.8585C90.9922 32.1082 91.095 32.3286 91.2419 32.5195L91.9029 32.2111L92.1673 32.806ZM84.4117 28.818C84.4117 29.4937 84.5219 30.0812 84.7422 30.5806C84.9625 31.08 85.2489 31.4619 85.6015 31.7263C85.9687 31.9907 86.3579 32.1229 86.7692 32.1229L87.7607 31.1315L87.7166 26.6808C86.7619 26.2254 85.8438 25.917 84.9625 25.7554C84.5953 26.5927 84.4117 27.6135 84.4117 28.818Z" stroke="white" stroke-width="5" stroke-linecap="round" stroke-linejoin="round" mask="url(#path-10-outside-1_6_281)"/>
<path d="M97.8399 24.0809C99.1325 24.0809 100.146 24.5509 100.88 25.491C101.63 26.4164 101.997 27.6723 101.982 29.2587L95.901 29.4569C96.0038 30.3236 96.305 30.9846 96.8044 31.4399C97.3038 31.8953 97.9648 32.1229 98.7873 32.1229C99.933 32.1229 100.866 31.8071 101.586 31.1755L101.982 31.528C101.468 32.5122 100.77 33.2833 99.889 33.8415C99.0224 34.385 98.097 34.6567 97.1128 34.6567C95.7762 34.6567 94.7112 34.2161 93.9181 33.3347C93.1396 32.4387 92.7503 31.2343 92.7503 29.7213C92.7503 28.8253 92.9266 27.9367 93.2791 27.0554C93.6463 26.174 94.109 25.4396 94.6672 24.8521C95.0491 24.6317 95.5411 24.4481 96.1434 24.3012C96.7456 24.1543 97.3111 24.0809 97.8399 24.0809ZM98.7212 28.5316C98.7065 27.5034 98.5597 26.6881 98.2806 26.0859C98.0015 25.4837 97.6049 25.1238 97.0908 25.0063C96.7236 25.3882 96.4225 25.9243 96.1874 26.6147C95.9671 27.2904 95.857 27.9881 95.857 28.7078V28.7739L98.7212 28.5316Z" stroke="white" stroke-width="5" stroke-linecap="round" stroke-linejoin="round" mask="url(#path-10-outside-1_6_281)"/>
<path d="M113.619 32.806L110.402 34.5466C110.006 34.3115 109.712 34.0031 109.521 33.6212C109.345 33.2246 109.242 32.7178 109.213 32.1009L107.031 34.6567C106.18 34.6567 105.423 34.4658 104.762 34.0839C104.116 33.6873 103.609 33.1511 103.242 32.4755C102.875 31.7851 102.691 31.0066 102.691 30.14C102.691 29.3908 102.816 28.5977 103.066 27.7604C103.315 26.9232 103.616 26.2695 103.969 25.7995C104.248 25.4029 104.755 25.021 105.489 24.6538C106.224 24.2719 106.84 24.0809 107.34 24.0809C107.781 24.0809 108.383 24.1543 109.147 24.3012L109.103 20.4234L108.265 20.5997L108.045 19.9607L112.121 18.7269L112.43 19.2557L112.297 30.6688C112.297 31.1976 112.327 31.5941 112.385 31.8585C112.444 32.1082 112.547 32.3286 112.694 32.5195L113.355 32.2111L113.619 32.806ZM105.864 28.818C105.864 29.4937 105.974 30.0812 106.194 30.5806C106.415 31.08 106.701 31.4619 107.053 31.7263C107.421 31.9907 107.81 32.1229 108.221 32.1229L109.213 31.1315L109.169 26.6808C108.214 26.2254 107.296 25.917 106.415 25.7554C106.047 26.5927 105.864 27.6135 105.864 28.818Z" stroke="white" stroke-width="5" stroke-linecap="round" stroke-linejoin="round" mask="url(#path-10-outside-1_6_281)"/>
<mask id="path-11-outside-2_6_281" maskUnits="userSpaceOnUse" x="113.361" y="14.76" width="54" height="23" fill="black">
<rect fill="white" x="113.361" y="14.76" width="54" height="23"/>
<path d="M131.614 18.6316V19.4344L130.65 19.4573L125.283 33.8151L122.302 34.205L117.325 19.4573L116.361 19.4344V18.6316H123.334V19.4344L121.981 19.4573L125.031 31.2692L127.76 19.4573L126.407 19.4344V18.6316H131.614Z"/>
<path d="M139.19 32.8059L135.819 34.3885C135.406 34.098 135.123 33.7004 134.97 33.1958C134.419 33.5322 133.861 33.8074 133.296 34.0215C132.745 34.2356 132.264 34.3426 131.851 34.3426C131.224 34.3426 130.712 34.1209 130.314 33.6775C129.916 33.234 129.718 32.6683 129.718 31.9802C129.718 31.6744 129.748 31.3457 129.809 30.994C129.886 30.627 129.978 30.3365 130.085 30.1224L134.947 29.3426L134.993 28.6775C135.023 27.9894 134.878 27.4542 134.557 27.072C134.236 26.6744 133.716 26.4756 132.997 26.4756C132.676 26.4756 132.34 26.5139 131.988 26.5903C131.637 26.6515 131.338 26.7356 131.094 26.8426L130.727 27.6224L130.108 27.3931L131.163 24.0903C132.34 23.5857 133.456 23.3334 134.511 23.3334C135.597 23.3334 136.484 23.624 137.172 24.205C137.86 24.7707 138.204 25.6652 138.204 26.8885L138.181 27.3472L137.952 30.4435L137.906 31.2692C137.906 31.5444 137.929 31.7662 137.975 31.9343C138.02 32.0873 138.097 32.2478 138.204 32.416L138.915 32.1408L139.19 32.8059ZM133.984 32.6912C134.228 32.6912 134.511 32.5995 134.832 32.416L134.809 31.9343L134.832 31.4298L134.901 30.1224L133.135 30.5353C133.074 30.734 133.043 31.0016 133.043 31.338C133.043 31.7967 133.135 32.1408 133.319 32.3701C133.502 32.5842 133.724 32.6912 133.984 32.6912Z"/>
<path d="M151.294 32.4619L148.106 34.2738C147.617 34.0139 147.257 33.6622 147.028 33.2188C146.799 32.76 146.684 32.179 146.684 31.4756L144.712 34.3426C143.274 34.3426 142.212 33.9986 141.523 33.3105C140.835 32.6071 140.491 31.5292 140.491 30.0766V24.4114L139.643 24.3426V23.6775H143.725V29.1591C143.725 29.8472 143.901 30.3824 144.253 30.7646C144.62 31.1316 145.101 31.3227 145.698 31.338L146.684 30.4206V24.4114L145.858 24.3426V23.6775H149.918V30.1454C149.918 30.7111 149.949 31.1316 150.01 31.4068C150.086 31.6821 150.201 31.9191 150.354 32.1178L151.042 31.7738L151.294 32.4619Z"/>
<path d="M151.448 33.3334L152.296 33.2646L152.182 19.5261L151.31 19.7096L151.081 19.0444L155.324 17.76L155.645 18.3105L155.53 33.2646L156.379 33.3334V33.9986H151.448V33.3334Z"/>
<path d="M164.362 32.1866L161.564 34.205C160.432 34.205 159.607 33.9298 159.087 33.3793C158.582 32.8136 158.33 31.9114 158.33 30.6729V24.572H156.793V23.838C157.436 23.4863 158.131 22.9894 158.881 22.3472C159.645 21.6897 160.341 21.0016 160.968 20.283L161.725 20.5123L161.61 23.6775H164.293V24.6408L161.564 24.5949V29.8701C161.564 30.6041 161.702 31.1392 161.977 31.4756C162.267 31.812 162.65 31.9802 163.124 31.9802L163.972 31.4986L164.362 32.1866Z"/>
</mask>
<path d="M131.614 18.6316V19.4344L130.65 19.4573L125.283 33.8151L122.302 34.205L117.325 19.4573L116.361 19.4344V18.6316H123.334V19.4344L121.981 19.4573L125.031 31.2692L127.76 19.4573L126.407 19.4344V18.6316H131.614Z" fill="url(#paint13_linear_6_281)"/>
<path d="M139.19 32.8059L135.819 34.3885C135.406 34.098 135.123 33.7004 134.97 33.1958C134.419 33.5322 133.861 33.8074 133.296 34.0215C132.745 34.2356 132.264 34.3426 131.851 34.3426C131.224 34.3426 130.712 34.1209 130.314 33.6775C129.916 33.234 129.718 32.6683 129.718 31.9802C129.718 31.6744 129.748 31.3457 129.809 30.994C129.886 30.627 129.978 30.3365 130.085 30.1224L134.947 29.3426L134.993 28.6775C135.023 27.9894 134.878 27.4542 134.557 27.072C134.236 26.6744 133.716 26.4756 132.997 26.4756C132.676 26.4756 132.34 26.5139 131.988 26.5903C131.637 26.6515 131.338 26.7356 131.094 26.8426L130.727 27.6224L130.108 27.3931L131.163 24.0903C132.34 23.5857 133.456 23.3334 134.511 23.3334C135.597 23.3334 136.484 23.624 137.172 24.205C137.86 24.7707 138.204 25.6652 138.204 26.8885L138.181 27.3472L137.952 30.4435L137.906 31.2692C137.906 31.5444 137.929 31.7662 137.975 31.9343C138.02 32.0873 138.097 32.2478 138.204 32.416L138.915 32.1408L139.19 32.8059ZM133.984 32.6912C134.228 32.6912 134.511 32.5995 134.832 32.416L134.809 31.9343L134.832 31.4298L134.901 30.1224L133.135 30.5353C133.074 30.734 133.043 31.0016 133.043 31.338C133.043 31.7967 133.135 32.1408 133.319 32.3701C133.502 32.5842 133.724 32.6912 133.984 32.6912Z" fill="url(#paint14_linear_6_281)"/>
<path d="M151.294 32.4619L148.106 34.2738C147.617 34.0139 147.257 33.6622 147.028 33.2188C146.799 32.76 146.684 32.179 146.684 31.4756L144.712 34.3426C143.274 34.3426 142.212 33.9986 141.523 33.3105C140.835 32.6071 140.491 31.5292 140.491 30.0766V24.4114L139.643 24.3426V23.6775H143.725V29.1591C143.725 29.8472 143.901 30.3824 144.253 30.7646C144.62 31.1316 145.101 31.3227 145.698 31.338L146.684 30.4206V24.4114L145.858 24.3426V23.6775H149.918V30.1454C149.918 30.7111 149.949 31.1316 150.01 31.4068C150.086 31.6821 150.201 31.9191 150.354 32.1178L151.042 31.7738L151.294 32.4619Z" fill="url(#paint15_linear_6_281)"/>
<path d="M151.448 33.3334L152.296 33.2646L152.182 19.5261L151.31 19.7096L151.081 19.0444L155.324 17.76L155.645 18.3105L155.53 33.2646L156.379 33.3334V33.9986H151.448V33.3334Z" fill="url(#paint16_linear_6_281)"/>
<path d="M164.362 32.1866L161.564 34.205C160.432 34.205 159.607 33.9298 159.087 33.3793C158.582 32.8136 158.33 31.9114 158.33 30.6729V24.572H156.793V23.838C157.436 23.4863 158.131 22.9894 158.881 22.3472C159.645 21.6897 160.341 21.0016 160.968 20.283L161.725 20.5123L161.61 23.6775H164.293V24.6408L161.564 24.5949V29.8701C161.564 30.6041 161.702 31.1392 161.977 31.4756C162.267 31.812 162.65 31.9802 163.124 31.9802L163.972 31.4986L164.362 32.1866Z" fill="url(#paint17_linear_6_281)"/>
<path d="M131.614 18.6316V19.4344L130.65 19.4573L125.283 33.8151L122.302 34.205L117.325 19.4573L116.361 19.4344V18.6316H123.334V19.4344L121.981 19.4573L125.031 31.2692L127.76 19.4573L126.407 19.4344V18.6316H131.614Z" stroke="white" stroke-width="5" stroke-linecap="round" stroke-linejoin="round" mask="url(#path-11-outside-2_6_281)"/>
<path d="M139.19 32.8059L135.819 34.3885C135.406 34.098 135.123 33.7004 134.97 33.1958C134.419 33.5322 133.861 33.8074 133.296 34.0215C132.745 34.2356 132.264 34.3426 131.851 34.3426C131.224 34.3426 130.712 34.1209 130.314 33.6775C129.916 33.234 129.718 32.6683 129.718 31.9802C129.718 31.6744 129.748 31.3457 129.809 30.994C129.886 30.627 129.978 30.3365 130.085 30.1224L134.947 29.3426L134.993 28.6775C135.023 27.9894 134.878 27.4542 134.557 27.072C134.236 26.6744 133.716 26.4756 132.997 26.4756C132.676 26.4756 132.34 26.5139 131.988 26.5903C131.637 26.6515 131.338 26.7356 131.094 26.8426L130.727 27.6224L130.108 27.3931L131.163 24.0903C132.34 23.5857 133.456 23.3334 134.511 23.3334C135.597 23.3334 136.484 23.624 137.172 24.205C137.86 24.7707 138.204 25.6652 138.204 26.8885L138.181 27.3472L137.952 30.4435L137.906 31.2692C137.906 31.5444 137.929 31.7662 137.975 31.9343C138.02 32.0873 138.097 32.2478 138.204 32.416L138.915 32.1408L139.19 32.8059ZM133.984 32.6912C134.228 32.6912 134.511 32.5995 134.832 32.416L134.809 31.9343L134.832 31.4298L134.901 30.1224L133.135 30.5353C133.074 30.734 133.043 31.0016 133.043 31.338C133.043 31.7967 133.135 32.1408 133.319 32.3701C133.502 32.5842 133.724 32.6912 133.984 32.6912Z" stroke="white" stroke-width="5" stroke-linecap="round" stroke-linejoin="round" mask="url(#path-11-outside-2_6_281)"/>
<path d="M151.294 32.4619L148.106 34.2738C147.617 34.0139 147.257 33.6622 147.028 33.2188C146.799 32.76 146.684 32.179 146.684 31.4756L144.712 34.3426C143.274 34.3426 142.212 33.9986 141.523 33.3105C140.835 32.6071 140.491 31.5292 140.491 30.0766V24.4114L139.643 24.3426V23.6775H143.725V29.1591C143.725 29.8472 143.901 30.3824 144.253 30.7646C144.62 31.1316 145.101 31.3227 145.698 31.338L146.684 30.4206V24.4114L145.858 24.3426V23.6775H149.918V30.1454C149.918 30.7111 149.949 31.1316 150.01 31.4068C150.086 31.6821 150.201 31.9191 150.354 32.1178L151.042 31.7738L151.294 32.4619Z" stroke="white" stroke-width="5" stroke-linecap="round" stroke-linejoin="round" mask="url(#path-11-outside-2_6_281)"/>
<path d="M151.448 33.3334L152.296 33.2646L152.182 19.5261L151.31 19.7096L151.081 19.0444L155.324 17.76L155.645 18.3105L155.53 33.2646L156.379 33.3334V33.9986H151.448V33.3334Z" stroke="white" stroke-width="5" stroke-linecap="round" stroke-linejoin="round" mask="url(#path-11-outside-2_6_281)"/>
<path d="M164.362 32.1866L161.564 34.205C160.432 34.205 159.607 33.9298 159.087 33.3793C158.582 32.8136 158.33 31.9114 158.33 30.6729V24.572H156.793V23.838C157.436 23.4863 158.131 22.9894 158.881 22.3472C159.645 21.6897 160.341 21.0016 160.968 20.283L161.725 20.5123L161.61 23.6775H164.293V24.6408L161.564 24.5949V29.8701C161.564 30.6041 161.702 31.1392 161.977 31.4756C162.267 31.812 162.65 31.9802 163.124 31.9802L163.972 31.4986L164.362 32.1866Z" stroke="white" stroke-width="5" stroke-linecap="round" stroke-linejoin="round" mask="url(#path-11-outside-2_6_281)"/>
<path d="M72.6139 9.01691C72.5332 8.99593 72.4486 8.98477 72.3614 8.98477H66.8192C66.2669 8.98477 65.8192 9.43249 65.8192 9.98477V11.8071C65.8192 12.0768 65.9281 12.335 66.1212 12.5232C66.3143 12.7115 66.5753 12.8137 66.8448 12.8068L67.2112 12.7974C67.4377 12.7916 67.6456 12.7106 67.8106 12.5783V14.9833C67.3829 15.0971 67.0686 15.4871 67.0686 15.9497V16.2784C67.0686 16.8307 67.5163 17.2784 68.0686 17.2784H71.1121C71.4901 17.2784 71.8192 17.0686 71.9892 16.7591C72.1592 17.0686 72.4882 17.2784 72.8663 17.2784H75.3462C75.5677 17.2784 75.7723 17.2065 75.938 17.0846C76.1037 17.2065 76.3083 17.2784 76.5298 17.2784H79.0097C79.1 17.2784 79.1875 17.2665 79.2708 17.244C79.354 17.2665 79.4415 17.2784 79.5318 17.2784H84.2944C84.8467 17.2784 85.2944 16.8307 85.2944 16.2784V14.4091C85.2944 14.1395 85.1855 13.8812 84.9924 13.693C84.8078 13.5131 84.5612 13.4117 84.3043 13.4092C84.3191 13.3409 84.3268 13.27 84.3268 13.1974V12.8498C84.3268 12.8274 84.3261 12.8051 84.3246 12.783C84.504 12.7429 84.6706 12.6538 84.8045 12.5232C84.9976 12.335 85.1065 12.0768 85.1065 11.8071V9.98477C85.1065 9.43249 84.6588 8.98477 84.1065 8.98477H79.5318C79.4415 8.98477 79.354 8.99675 79.2708 9.01919C79.1875 8.99675 79.1 8.98477 79.0097 8.98477H76.5298C76.3083 8.98477 76.1037 9.05676 75.938 9.1786C75.7723 9.05676 75.5677 8.98477 75.3462 8.98477H72.8663C72.7791 8.98477 72.6945 8.99593 72.6139 9.01691ZM72.3266 12.8066V15.1077C72.1861 15.1979 72.0698 15.3223 71.9892 15.4691C71.8594 15.2326 71.6367 15.0543 71.37 14.9833V12.5783C71.535 12.7106 71.7429 12.7916 71.9694 12.7974L72.3266 12.8066ZM82.5631 11.8498L82.5628 11.8102C82.5869 11.8233 82.611 11.8365 82.635 11.8498H82.5631ZM75.938 11.1197C75.955 11.1322 75.9723 11.1441 75.9901 11.1555V11.9813H75.8859V11.1555C75.9037 11.1441 75.921 11.1322 75.938 11.1197ZM75.8859 15.1077V14.3289H75.9901V15.1077C75.9723 15.1191 75.955 15.131 75.938 15.1435C75.921 15.131 75.9037 15.1191 75.8859 15.1077ZM82.9526 14.1974C82.9456 14.2287 82.94 14.2606 82.9359 14.293C82.8176 14.3577 82.6986 14.4206 82.5788 14.4817L82.5769 14.1974H82.9526Z" fill="#99631B" stroke="white" stroke-width="2" stroke-linecap="round" stroke-linejoin="round"/>
<path fill-rule="evenodd" clip-rule="evenodd" d="M66.6489 9.98478C66.6489 9.89066 66.7252 9.81436 66.8193 9.81436H72.3615C72.4557 9.81436 72.532 9.89066 72.532 9.98478V11.8071C72.532 11.8531 72.5134 11.8971 72.4805 11.9292C72.4476 11.9612 72.4031 11.9787 72.3572 11.9775L71.9908 11.9681C71.9011 11.9658 71.8285 11.8943 71.8249 11.8045L71.8094 11.4181C71.3181 11.0675 70.8954 10.7921 70.5405 10.5905V15.772L71.1144 15.7793C71.2076 15.7805 71.2826 15.8564 71.2826 15.9497V16.2785C71.2826 16.3726 71.2063 16.4489 71.1122 16.4489H68.0687C67.9746 16.4489 67.8983 16.3726 67.8983 16.2785V15.9497C67.8983 15.8564 67.9733 15.7805 68.0665 15.7793L68.6404 15.772V10.5905C68.2855 10.7921 67.8628 11.0675 67.3714 11.4181L67.356 11.8045C67.3524 11.8943 67.2798 11.9658 67.1901 11.9681L66.8237 11.9775C66.7778 11.9787 66.7333 11.9612 66.7004 11.9292C66.6675 11.8971 66.6489 11.8531 66.6489 11.8071V9.98478ZM66.9898 10.1552V11.6323L67.0218 11.6315L67.0342 11.3212C67.0363 11.2688 67.0624 11.2203 67.105 11.1897C67.7506 10.7258 68.2921 10.38 68.7278 10.1552H66.9898ZM68.8936 10.1552C68.8956 10.1563 68.8976 10.1575 68.8995 10.1587C68.9503 10.1896 68.9812 10.2447 68.9812 10.3042V15.9403C68.9812 16.024 68.9208 16.0938 68.841 16.108H70.3399C70.2601 16.0938 70.1997 16.024 70.1997 15.9403V10.3042C70.1997 10.2447 70.2306 10.1896 70.2814 10.1587C70.2833 10.1575 70.2853 10.1563 70.2873 10.1552H68.8936ZM70.4531 10.1552C70.8888 10.38 71.4303 10.7258 72.0758 11.1897C72.1185 11.2203 72.1446 11.2688 72.1467 11.3212L72.1591 11.6315L72.1911 11.6323V10.1552H70.4531ZM72.696 9.98478C72.696 9.89066 72.7723 9.81436 72.8664 9.81436H75.3463C75.4405 9.81436 75.5168 9.89066 75.5168 9.98478V10.3136C75.5168 10.4063 75.4426 10.482 75.3498 10.4839L75.0565 10.4899V12.8109H76.8198V10.4899L76.5264 10.4839C76.4337 10.482 76.3595 10.4063 76.3595 10.3136V9.98478C76.3595 9.89066 76.4358 9.81436 76.5299 9.81436H79.0098C79.1039 9.81436 79.1802 9.89066 79.1802 9.98478V10.3136C79.1802 10.4063 79.106 10.482 79.0133 10.4839L78.72 10.4899V15.7733L79.0133 15.7793C79.106 15.7812 79.1802 15.8569 79.1802 15.9497V16.2785C79.1802 16.3726 79.1039 16.4489 79.0098 16.4489H76.5299C76.4358 16.4489 76.3595 16.3726 76.3595 16.2785V15.9497C76.3595 15.8569 76.4337 15.7812 76.5264 15.7793L76.8198 15.7733V13.4993H75.0565V15.7733L75.3498 15.7793C75.4426 15.7812 75.5168 15.8569 75.5168 15.9497V16.2785C75.5168 16.3726 75.4405 16.4489 75.3463 16.4489H72.8664C72.7723 16.4489 72.696 16.3726 72.696 16.2785V15.9497C72.696 15.8569 72.7702 15.7812 72.863 15.7793L73.1563 15.7733V10.4899L72.863 10.4839C72.7702 10.482 72.696 10.4063 72.696 10.3136V9.98478ZM73.3569 10.1552C73.4368 10.1695 73.4971 10.2393 73.4971 10.3229V15.9403C73.4971 16.024 73.4368 16.0938 73.3569 16.108H74.8559C74.776 16.0938 74.7156 16.024 74.7156 15.9403V13.3289C74.7156 13.2348 74.7919 13.1585 74.8861 13.1585H76.9902C77.0843 13.1585 77.1606 13.2348 77.1606 13.3289V15.9403C77.1606 16.024 77.1003 16.0938 77.0204 16.108H78.5193C78.4395 16.0938 78.3791 16.024 78.3791 15.9403V10.3229C78.3791 10.2393 78.4395 10.1695 78.5193 10.1552H77.0204C77.1003 10.1695 77.1606 10.2393 77.1606 10.3229V12.9813C77.1606 13.0754 77.0843 13.1517 76.9902 13.1517H74.8861C74.7919 13.1517 74.7156 13.0754 74.7156 12.9813V10.3229C74.7156 10.2393 74.776 10.1695 74.8559 10.1552H73.3569ZM79.3615 9.98478C79.3615 9.89066 79.4378 9.81436 79.532 9.81436H84.1066C84.2007 9.81436 84.277 9.89066 84.277 9.98478V11.8071C84.277 11.8531 84.2585 11.8971 84.2256 11.9292C84.1927 11.9612 84.1482 11.9787 84.1023 11.9775L83.7359 11.9681C83.6462 11.9658 83.5736 11.8943 83.57 11.8045L83.5548 11.4255C82.9648 11.0641 82.3545 10.7528 81.7238 10.4915L81.7396 12.6794H83.327C83.4211 12.6794 83.4974 12.7557 83.4974 12.8498V13.1974C83.4974 13.2915 83.4211 13.3678 83.327 13.3678H81.7419L81.7579 15.7661C82.4404 15.4916 83.102 15.1659 83.7428 14.7888L83.7579 14.4117C83.7615 14.322 83.834 14.2505 83.9238 14.2482L84.2901 14.2388C84.3361 14.2376 84.3805 14.255 84.4134 14.2871C84.4464 14.3192 84.4649 14.3632 84.4649 14.4091V16.2785C84.4649 16.3726 84.3886 16.4489 84.2945 16.4489H79.532C79.4378 16.4489 79.3615 16.3726 79.3615 16.2785V15.9497C79.3615 15.8569 79.4357 15.7812 79.5285 15.7793L79.8218 15.7733V10.4899L79.5285 10.4839C79.4357 10.482 79.3615 10.4063 79.3615 10.3136V9.98478ZM80.0225 10.1552C80.1023 10.1695 80.1627 10.2393 80.1627 10.3229V15.9403C80.1627 16.024 80.1023 16.0938 80.0224 16.108H81.4461C81.4287 16.0812 81.419 16.0495 81.4187 16.0166L81.4 13.1985C81.3996 13.1531 81.4175 13.1095 81.4495 13.0773C81.4815 13.0451 81.525 13.027 81.5704 13.027H83.1565V13.0202H81.5704C81.4767 13.0202 81.4006 12.9447 81.4 12.851L81.3812 10.2396C81.381 10.2096 81.3886 10.1806 81.4029 10.1552H80.0225ZM81.8022 10.1552C82.4961 10.4393 83.1659 10.782 83.8115 11.1833C83.8594 11.2131 83.8895 11.2648 83.8918 11.3212L83.9042 11.6315L83.9362 11.6323V10.1552H81.8022ZM81.8208 16.108H84.1241V14.584L84.0921 14.5848L84.0796 14.895C84.0773 14.9526 84.0461 15.0051 83.9967 15.0346C83.2962 15.4525 82.5709 15.8104 81.8208 16.108Z" fill="#99631B"/>
</g>
<defs>
<linearGradient id="paint0_linear_6_281" x1="49.0123" y1="24.2151" x2="25.0898" y2="38.0267" gradientUnits="userSpaceOnUse">
<stop stop-color="#E19A3D"/>
<stop offset="0.15625" stop-color="#E1A049"/>
<stop offset="0.661458" stop-color="#F1E087"/>
</linearGradient>
<linearGradient id="paint1_linear_6_281" x1="2.07234" y1="24.2151" x2="25.9948" y2="38.0267" gradientUnits="userSpaceOnUse">
<stop stop-color="#E19A3D"/>
<stop offset="0.15625" stop-color="#E1A049"/>
<stop offset="0.661458" stop-color="#F1E087"/>
</linearGradient>
<linearGradient id="paint2_linear_6_281" x1="43.34" y1="9.13822" x2="28.272" y2="36.3001" gradientUnits="userSpaceOnUse">
<stop stop-color="#E19A3D"/>
<stop offset="0.15625" stop-color="#E1A049"/>
<stop offset="0.661458" stop-color="#F1E087"/>
</linearGradient>
<linearGradient id="paint3_linear_6_281" x1="8.35004" y1="9.13822" x2="23.4181" y2="36.3001" gradientUnits="userSpaceOnUse">
<stop stop-color="#E19A3D"/>
<stop offset="0.15625" stop-color="#E1A049"/>
<stop offset="0.661458" stop-color="#F1E087"/>
</linearGradient>
<linearGradient id="paint4_linear_6_281" x1="25.4607" y1="1.68829" x2="25.4607" y2="36.7003" gradientUnits="userSpaceOnUse">
<stop stop-color="#E19A3D"/>
<stop offset="0.15625" stop-color="#E1A049"/>
<stop offset="0.661458" stop-color="#F1E087"/>
</linearGradient>
<radialGradient id="paint5_angular_6_281" cx="0" cy="0" r="1" gradientUnits="userSpaceOnUse" gradientTransform="translate(25.751 24.5252) rotate(90) scale(11.1416 14.1)">
<stop stop-color="#F1E087"/>
<stop offset="0.713542" stop-color="#E1A049"/>
<stop offset="1" stop-color="#99631B"/>
</radialGradient>
<radialGradient id="paint6_angular_6_281" cx="0" cy="0" r="1" gradientUnits="userSpaceOnUse" gradientTransform="translate(16.1505 18.267) rotate(29.4057) scale(11.0204 10.6367)">
<stop offset="0.0346599" stop-color="#542D09"/>
<stop offset="0.764517" stop-color="#E1A049"/>
</radialGradient>
<linearGradient id="paint7_linear_6_281" x1="162" y1="-7.50003" x2="40.125" y2="36.875" gradientUnits="userSpaceOnUse">
<stop offset="0.00119863" stop-color="#99631B"/>
<stop offset="0.127027" stop-color="#E1A049"/>
<stop offset="0.328912" stop-color="#FFEAA0"/>
<stop offset="0.756095" stop-color="#E1A049"/>
<stop offset="1" stop-color="#542D09"/>
</linearGradient>
<linearGradient id="paint8_linear_6_281" x1="162" y1="-7.50003" x2="40.125" y2="36.875" gradientUnits="userSpaceOnUse">
<stop offset="0.00119863" stop-color="#99631B"/>
<stop offset="0.127027" stop-color="#E1A049"/>
<stop offset="0.328912" stop-color="#FFEAA0"/>
<stop offset="0.756095" stop-color="#E1A049"/>
<stop offset="1" stop-color="#542D09"/>
</linearGradient>
<linearGradient id="paint9_linear_6_281" x1="162" y1="-7.50003" x2="40.125" y2="36.875" gradientUnits="userSpaceOnUse">
<stop offset="0.00119863" stop-color="#99631B"/>
<stop offset="0.127027" stop-color="#E1A049"/>
<stop offset="0.328912" stop-color="#FFEAA0"/>
<stop offset="0.756095" stop-color="#E1A049"/>
<stop offset="1" stop-color="#542D09"/>
</linearGradient>
<linearGradient id="paint10_linear_6_281" x1="162" y1="-7.50003" x2="40.125" y2="36.875" gradientUnits="userSpaceOnUse">
<stop offset="0.00119863" stop-color="#99631B"/>
<stop offset="0.127027" stop-color="#E1A049"/>
<stop offset="0.328912" stop-color="#FFEAA0"/>
<stop offset="0.756095" stop-color="#E1A049"/>
<stop offset="1" stop-color="#542D09"/>
</linearGradient>
<linearGradient id="paint11_linear_6_281" x1="162" y1="-7.50003" x2="40.125" y2="36.875" gradientUnits="userSpaceOnUse">
<stop offset="0.00119863" stop-color="#99631B"/>
<stop offset="0.127027" stop-color="#E1A049"/>
<stop offset="0.328912" stop-color="#FFEAA0"/>
<stop offset="0.756095" stop-color="#E1A049"/>
<stop offset="1" stop-color="#542D09"/>
</linearGradient>
<linearGradient id="paint12_linear_6_281" x1="162" y1="-7.50003" x2="40.125" y2="36.875" gradientUnits="userSpaceOnUse">
<stop offset="0.00119863" stop-color="#99631B"/>
<stop offset="0.127027" stop-color="#E1A049"/>
<stop offset="0.328912" stop-color="#FFEAA0"/>
<stop offset="0.756095" stop-color="#E1A049"/>
<stop offset="1" stop-color="#542D09"/>
</linearGradient>
<linearGradient id="paint13_linear_6_281" x1="155.5" y1="13.5" x2="60.589" y2="19.5129" gradientUnits="userSpaceOnUse">
<stop stop-color="#99631B"/>
<stop offset="0.292318" stop-color="#E1A049"/>
<stop offset="0.515484" stop-color="#FFEAA0"/>
<stop offset="0.756095" stop-color="#E1A049"/>
<stop offset="1" stop-color="#542D09"/>
</linearGradient>
<linearGradient id="paint14_linear_6_281" x1="155.5" y1="13.5" x2="60.589" y2="19.5129" gradientUnits="userSpaceOnUse">
<stop stop-color="#99631B"/>
<stop offset="0.292318" stop-color="#E1A049"/>
<stop offset="0.515484" stop-color="#FFEAA0"/>
<stop offset="0.756095" stop-color="#E1A049"/>
<stop offset="1" stop-color="#542D09"/>
</linearGradient>
<linearGradient id="paint15_linear_6_281" x1="155.5" y1="13.5" x2="60.589" y2="19.5129" gradientUnits="userSpaceOnUse">
<stop stop-color="#99631B"/>
<stop offset="0.292318" stop-color="#E1A049"/>
<stop offset="0.515484" stop-color="#FFEAA0"/>
<stop offset="0.756095" stop-color="#E1A049"/>
<stop offset="1" stop-color="#542D09"/>
</linearGradient>
<linearGradient id="paint16_linear_6_281" x1="155.5" y1="13.5" x2="60.589" y2="19.5129" gradientUnits="userSpaceOnUse">
<stop stop-color="#99631B"/>
<stop offset="0.292318" stop-color="#E1A049"/>
<stop offset="0.515484" stop-color="#FFEAA0"/>
<stop offset="0.756095" stop-color="#E1A049"/>
<stop offset="1" stop-color="#542D09"/>
</linearGradient>
<linearGradient id="paint17_linear_6_281" x1="155.5" y1="13.5" x2="60.589" y2="19.5129" gradientUnits="userSpaceOnUse">
<stop stop-color="#99631B"/>
<stop offset="0.292318" stop-color="#E1A049"/>
<stop offset="0.515484" stop-color="#FFEAA0"/>
<stop offset="0.756095" stop-color="#E1A049"/>
<stop offset="1" stop-color="#542D09"/>
</linearGradient>
<clipPath id="clip0_6_281">
<rect width="168.571" height="40" fill="white" transform="translate(0.214233)"/>
</clipPath>
</defs>
</svg>
