<svg width="193" height="40" viewBox="0 0 193 40" fill="none" xmlns="http://www.w3.org/2000/svg">
<g clip-path="url(#clip0_6_281)">
<path d="M49.2167 24.9402C45.3868 36.0707 36.2909 38.1053 24.921 38.1053C28.7509 26.2567 38.8043 22.0678 49.2167 24.9402Z" fill="url(#paint0_linear_6_281)" stroke="white" stroke-width="2" stroke-linecap="round" stroke-linejoin="round"/>
<path d="M1.43947 24.9402C5.26934 36.0707 14.3652 38.1053 25.7351 38.1053C21.9052 26.2567 11.8518 22.0678 1.43947 24.9402Z" fill="url(#paint1_linear_6_281)" stroke="white" stroke-width="2" stroke-linecap="round" stroke-linejoin="round"/>
<path d="M43.0474 9.09473C45.5942 20.5724 37.5325 29.7768 25.8442 35.0721C25.8442 24.1284 30.6494 10.9489 43.0474 9.09473Z" fill="url(#paint2_linear_6_281)" stroke="white" stroke-width="2" stroke-linecap="round" stroke-linejoin="round"/>
<path d="M8.21421 9.09473C5.66739 20.5724 13.7291 29.7768 25.4174 35.0721C25.4174 24.1284 20.6122 10.9489 8.21421 9.09473Z" fill="url(#paint3_linear_6_281)" stroke="white" stroke-width="2" stroke-linecap="round" stroke-linejoin="round"/>
<path d="M25.4502 36.7003C35.3284 29.2085 35.4221 10.3881 25.4502 1.68829C14.76 10.2328 15.2057 29.5352 25.4502 36.7003Z" fill="url(#paint4_linear_6_281)" stroke="white" stroke-width="2" stroke-linecap="round" stroke-linejoin="round"/>
<path d="M25.5845 11.5779L36.6465 17.9416V30.6688L25.5845 37.0325L14.5225 30.6688V17.9416L25.5845 11.5779Z" fill="#212529"/>
<path fill-rule="evenodd" clip-rule="evenodd" d="M24.7576 24.5717L16.0153 19.7259V23.9675L19.0423 25.7151V23.9484L21.1834 25.138V26.9513L24.7576 29.0148V24.5717ZM16.0153 26.1083L19.0423 27.856V29.8955L21.1834 31.0852V29.0921L24.7576 31.1557V34.8949L16.0153 29.8475V26.1083ZM26.316 34.8949V31.1557L29.7475 29.1745V31.085L31.8886 29.7766V27.9384L35.0584 26.1083V29.8475L26.316 34.8949ZM31.8886 25.7975L35.0584 23.9675V19.7259L26.316 24.5717V29.0148L29.7475 27.0337V25.1378L31.8886 23.8294V25.7975Z" fill="url(#paint5_angular_6_281)"/>
<path fill-rule="evenodd" clip-rule="evenodd" d="M16.8232 18.3865L25.5369 13.3557L34.2505 18.3865L25.5369 23.178L16.8232 18.3865Z" fill="url(#paint6_angular_6_281)"/>
<path d="M26.0831 10.7111C25.7744 10.5335 25.3946 10.5335 25.0858 10.7111L14.0238 17.0747C13.7137 17.2532 13.5225 17.5837 13.5225 17.9416V30.6688C13.5225 31.0267 13.7137 31.3572 14.0238 31.5356L25.0858 37.8993C25.3946 38.0769 25.7744 38.0769 26.0831 37.8993L37.1452 31.5356C37.4553 31.3572 37.6465 31.0267 37.6465 30.6688V17.9416C37.6465 17.5837 37.4553 17.2532 37.1452 17.0747L26.0831 10.7111Z" stroke="white" stroke-width="2" stroke-linejoin="round"/>
<path d="M76.2532 4.20828V6.43578L75.8054 6.4243L75.7825 5.8502C74.994 5.28376 74.3396 4.86658 73.8191 4.59867V11.4878L74.7261 11.4993V11.9012H71.006V11.4993L71.9131 11.4878V4.59867C71.3925 4.86658 70.7381 5.28376 69.9496 5.8502L69.9267 6.4243L69.4789 6.43578V4.20828H76.2532Z" fill="white"/>
<path d="M83.8169 4.62163V11.4878L84.3796 11.4993V11.9012H81.3483V11.4993L81.9109 11.4878V8.29585H79.339V11.4878L79.9016 11.4993V11.9012H76.8704V11.4993L77.433 11.4878V4.62163L76.8704 4.61015V4.20828H79.9016V4.61015L79.339 4.62163V7.87102H81.9109V4.62163L81.3483 4.61015V4.20828H84.3796V4.61015L83.8169 4.62163Z" fill="white"/>
<path d="M90.8391 9.61627V11.9012H85.0178V11.4993L85.5804 11.4878V4.62163L85.0178 4.61015V4.20828H90.6095V6.43578L90.1617 6.4243L90.1387 5.8502C89.2891 5.32203 88.405 4.87806 87.4864 4.51829L87.5094 7.71027H89.6565V8.1351H87.5094L87.5323 11.5797C88.5121 11.2046 89.4575 10.7453 90.3684 10.2019L90.3913 9.62776L90.8391 9.61627Z" fill="white"/>
<path fill-rule="evenodd" clip-rule="evenodd" d="M76.8703 4.20828V4.61015L77.4329 4.62163V11.4878L76.8703 11.4993V11.9012H79.9015V11.4993L79.3389 11.4878V8.29585H81.9109V11.4878L81.3483 11.4993V11.9012H84.3795V11.4993L83.8169 11.4878V4.62163L84.3795 4.61015V4.20828H81.3483V4.61015L81.9109 4.62163V7.87102H79.3389V4.62163L79.9015 4.61015V4.20828H76.8703ZM80.6249 1.87243C80.3963 1.80172 80.1534 1.76364 79.9015 1.76364H76.8703C76.7658 1.76364 76.6628 1.7702 76.5617 1.78293C76.4607 1.7702 76.3577 1.76364 76.2532 1.76364H69.4788C68.1287 1.76364 67.0342 2.85815 67.0342 4.20828V6.43578C67.0342 7.095 67.3004 7.72629 67.7725 8.18642C68.2271 8.6295 68.8354 8.87771 69.4683 8.8804V9.59863C68.9147 10.0471 68.5613 10.7324 68.5613 11.4993V11.9012C68.5613 13.2513 69.6558 14.3458 71.0059 14.3458H74.7261C75.1106 14.3458 75.4745 14.257 75.7982 14.0988C76.1219 14.257 76.4857 14.3458 76.8703 14.3458H79.9015C80.1534 14.3458 80.3963 14.3077 80.6249 14.237C80.8535 14.3077 81.0964 14.3458 81.3483 14.3458H84.3795C84.4877 14.3458 84.5942 14.3388 84.6986 14.3252C84.8031 14.3388 84.9096 14.3458 85.0177 14.3458H90.8391C92.1892 14.3458 93.2837 13.2513 93.2837 11.9012V9.61627C93.2837 8.96982 93.0277 8.35024 92.5726 7.89258C92.8832 7.47398 93.0541 6.96385 93.0541 6.43578V4.20828C93.0541 2.85815 91.9596 1.76364 90.6094 1.76364H85.0177C84.9096 1.76364 84.8031 1.77067 84.6986 1.78428C84.5942 1.77067 84.4877 1.76364 84.3795 1.76364H81.3483C81.0964 1.76364 80.8535 1.80172 80.6249 1.87243ZM85.0177 4.20828V4.61015L85.5804 4.62163V11.4878L85.0177 11.4993V11.9012H90.8391V9.61627L90.3913 9.62776L90.3683 10.2019C90.236 10.2808 90.1031 10.3579 89.9693 10.4333C89.8816 10.4827 89.7936 10.5314 89.7053 10.5793C89.2757 10.8122 88.8388 11.0271 88.3944 11.224C88.2718 11.2783 88.1487 11.3312 88.025 11.3828C87.9394 11.4184 87.8535 11.4535 87.7673 11.4878C87.6892 11.519 87.6108 11.5496 87.5323 11.5797L87.5093 8.13511H89.6564V7.71027H87.5093L87.4864 4.5183C87.5724 4.552 87.6582 4.58645 87.7436 4.62163C87.8378 4.6604 87.9316 4.70007 88.025 4.74063C88.0717 4.7609 88.1183 4.7814 88.1648 4.80212C88.4874 4.94584 88.8055 5.10034 89.1193 5.26563C89.2998 5.36072 89.4789 5.45937 89.6564 5.5616C89.7513 5.6162 89.8457 5.67183 89.9398 5.72847C90.0063 5.76854 90.0726 5.80911 90.1387 5.8502L90.1616 6.4243L90.6094 6.43578V4.20828H85.0177ZM74.7261 11.9012V11.4993L73.819 11.4878V4.59867C73.9849 4.68408 74.1645 4.78465 74.3576 4.9004C74.3881 4.91865 74.4189 4.93727 74.45 4.95627C74.6194 5.05968 74.7988 5.17426 74.9883 5.3C75.2359 5.46433 75.5006 5.64773 75.7824 5.8502L75.8054 6.4243L76.2532 6.43578V4.20828H69.4788V6.43578L69.9266 6.4243L69.9496 5.8502C70.4867 5.46433 70.9616 5.14773 71.3744 4.9004C71.5675 4.78465 71.7471 4.68408 71.913 4.59867V11.4878L71.0059 11.4993V11.9012H74.7261Z" fill="url(#paint7_linear_6_281)"/>
<path d="M148.678 14.7775V15.7587L147.501 15.7867L140.941 33.3366L137.296 33.8132L131.213 15.7867L130.035 15.7587V14.7775H138.558V15.7587L136.904 15.7867L140.632 30.2247L143.969 15.7867L142.315 15.7587V14.7775H148.678Z" fill="white"/>
<path d="M157.939 32.103L153.818 34.0375C153.314 33.6823 152.968 33.1964 152.781 32.5796C152.108 32.9908 151.426 33.3272 150.734 33.5889C150.062 33.8506 149.473 33.9814 148.968 33.9814C148.202 33.9814 147.576 33.7104 147.09 33.1684C146.604 32.6264 146.361 31.9348 146.361 31.0938C146.361 30.72 146.398 30.3182 146.473 29.8883C146.567 29.4397 146.679 29.0846 146.81 28.823L152.753 27.8698L152.809 27.0568C152.846 26.2157 152.669 25.5616 152.276 25.0943C151.884 24.6084 151.248 24.3654 150.37 24.3654C149.978 24.3654 149.566 24.4121 149.136 24.5056C148.707 24.5804 148.342 24.6831 148.043 24.814L147.595 25.7672L146.838 25.4868L148.127 21.4498C149.566 20.833 150.931 20.5246 152.22 20.5246C153.547 20.5246 154.631 20.8797 155.472 21.59C156.313 22.2815 156.734 23.3748 156.734 24.87L156.706 25.4307L156.426 29.2155L156.369 30.2247C156.369 30.5611 156.397 30.8321 156.454 31.0377C156.51 31.2246 156.603 31.4209 156.734 31.6265L157.603 31.29L157.939 32.103ZM151.575 31.9629C151.875 31.9629 152.22 31.8507 152.613 31.6265L152.585 31.0377L152.613 30.4209L152.697 28.823L150.538 29.3276C150.463 29.5706 150.426 29.8976 150.426 30.3088C150.426 30.8695 150.538 31.29 150.762 31.5704C150.987 31.832 151.258 31.9629 151.575 31.9629Z" fill="white"/>
<path d="M172.734 31.6825L168.838 33.8973C168.239 33.5795 167.8 33.1497 167.52 32.6077C167.24 32.047 167.099 31.3368 167.099 30.477L164.688 33.9814C162.932 33.9814 161.633 33.5609 160.792 32.7198C159.95 31.8601 159.53 30.5424 159.53 28.7669V21.8423L158.493 21.7582V20.9452H163.483V27.6455C163.483 28.4865 163.698 29.1407 164.128 29.6079C164.576 30.0565 165.165 30.2901 165.894 30.3088L167.099 29.1874V21.8423L166.09 21.7582V20.9452H171.052V28.851C171.052 29.5425 171.09 30.0565 171.164 30.3929C171.258 30.7293 171.398 31.019 171.585 31.262L172.426 30.8415L172.734 31.6825Z" fill="white"/>
<path d="M172.922 32.7478L173.959 32.6637L173.819 15.8708L172.754 16.0951L172.474 15.2821L177.66 13.7122L178.052 14.385L177.912 32.6637L178.95 32.7478V33.5609H172.922V32.7478Z" fill="white"/>
<path d="M188.708 31.3461L185.287 33.8132C183.904 33.8132 182.895 33.4768 182.26 32.8039C181.643 32.1124 181.335 31.0097 181.335 29.4958V22.0385H179.456V21.1414C180.241 20.7115 181.092 20.1041 182.007 19.3191C182.942 18.5155 183.792 17.6744 184.559 16.796L185.484 17.0763L185.344 20.9452H188.624V22.1226L185.287 22.0666V28.5146C185.287 29.4117 185.456 30.0658 185.792 30.477C186.147 30.8882 186.614 31.0938 187.194 31.0938L188.231 30.5051L188.708 31.3461Z" fill="white"/>
<path fill-rule="evenodd" clip-rule="evenodd" d="M148.678 11.7217C150.366 11.7217 151.734 13.0898 151.734 14.7775V15.7587C151.734 16.4124 151.529 17.0191 151.178 17.5167C151.525 17.4851 151.873 17.4688 152.22 17.4688C153.746 17.4688 155.23 17.8061 156.534 18.5996C157.064 18.1562 157.747 17.8894 158.493 17.8894H163.483C163.949 17.8894 164.391 17.9938 164.787 18.1806C165.182 17.9938 165.624 17.8894 166.09 17.8894H170.28C170.107 17.6505 169.966 17.383 169.865 17.0913L169.585 16.2783C169.314 15.493 169.374 14.6313 169.752 13.8916C170.13 13.152 170.793 12.598 171.588 12.3574L176.775 10.7874C178.129 10.3776 179.587 10.9506 180.3 12.1724L180.692 12.8453C180.969 13.3195 181.112 13.8594 181.108 14.4084L181.096 16.0125C181.507 15.6112 181.893 15.2027 182.256 14.7872C183.046 13.8812 184.294 13.5229 185.445 13.8715L186.37 14.1519C187.698 14.5542 188.588 15.8005 188.538 17.187L188.512 17.8894H188.624C190.311 17.8894 191.679 19.2575 191.679 20.9452V22.1226C191.679 22.942 191.35 23.727 190.766 24.3015C190.182 24.876 189.392 25.1918 188.572 25.178L188.343 25.1741V27.4513C188.579 27.4599 188.814 27.4958 189.045 27.5596C189.826 27.7754 190.49 28.2931 190.89 28.9985L191.366 29.8395C192.135 31.1956 191.759 32.9126 190.495 33.8244L187.075 36.2915C186.555 36.6669 185.929 36.869 185.287 36.869C183.878 36.869 182.356 36.6046 181.068 35.7631C180.519 36.2917 179.772 36.6167 178.95 36.6167H172.922C172.278 36.6167 171.68 36.4172 171.187 36.0767L170.347 36.554C169.438 37.0708 168.328 37.0866 167.404 36.5959C167.187 36.4804 166.976 36.3537 166.773 36.2157C166.213 36.7381 165.47 37.0372 164.688 37.0372C162.589 37.0372 160.441 36.5579 158.822 35.0644L155.117 36.8037C154.124 37.2698 152.957 37.1679 152.06 36.5365C152.004 36.4973 151.949 36.4573 151.895 36.4166C151.873 36.4252 151.851 36.4337 151.829 36.4421C150.946 36.7841 149.972 37.0372 148.968 37.0372C147.385 37.0372 145.914 36.4343 144.815 35.2083C144.468 34.8214 144.187 34.4063 143.966 33.9717L143.803 34.4065C143.407 35.4659 142.459 36.2199 141.337 36.3666L137.693 36.8432C136.246 37.0323 134.867 36.1726 134.401 34.7903L128.941 18.6128C127.792 18.1722 126.979 17.0585 126.979 15.7587V14.7775C126.979 13.0898 128.348 11.7217 130.035 11.7217H138.558C139.266 11.7217 139.918 11.9626 140.436 12.367C140.954 11.9626 141.606 11.7217 142.315 11.7217H148.678ZM138.558 14.7775H130.035V15.7587L131.213 15.7867L137.296 33.8132L140.941 33.3366L147.501 15.7867L148.678 15.7587V14.7775H142.315V15.7587L143.969 15.7867L140.632 30.2247L136.904 15.7867L138.558 15.7587V14.7775ZM148.738 21.2048C148.536 21.2802 148.332 21.3619 148.127 21.4498L146.838 25.4868L147.595 25.7672L148.043 24.814C148.342 24.6831 148.707 24.5803 149.136 24.5056C149.566 24.4121 149.978 24.3654 150.37 24.3654C150.381 24.3654 150.393 24.3655 150.404 24.3655C151.128 24.3707 151.685 24.5435 152.074 24.8838C152.147 24.948 152.215 25.0182 152.276 25.0943C152.29 25.1102 152.303 25.1262 152.316 25.1425C152.459 25.3241 152.571 25.5324 152.652 25.7674C152.779 26.1327 152.831 26.5624 152.809 27.0568L152.753 27.8698L146.81 28.823C146.679 29.0846 146.567 29.4397 146.473 29.8883C146.398 30.3182 146.361 30.72 146.361 31.0938C146.361 31.9348 146.604 32.6264 147.09 33.1684C147.552 33.6833 148.14 33.9537 148.855 33.9794C148.892 33.9807 148.93 33.9814 148.968 33.9814C149.275 33.9814 149.613 33.933 149.982 33.8364C150.22 33.774 150.471 33.6915 150.734 33.5889C151.016 33.4822 151.297 33.3631 151.576 33.2316C151.981 33.0405 152.382 32.8232 152.781 32.5796C152.93 33.0704 153.179 33.4783 153.529 33.8034C153.619 33.8869 153.715 33.9649 153.818 34.0374L157.939 32.103L157.603 31.29L156.734 31.6264C156.603 31.4209 156.51 31.2246 156.454 31.0377C156.432 30.9569 156.414 30.866 156.4 30.765C156.38 30.609 156.369 30.4289 156.369 30.2247L156.426 29.2154L156.706 25.4307L156.734 24.87C156.734 24.6508 156.725 24.4401 156.707 24.2381C156.669 23.8151 156.591 23.43 156.474 23.0828C156.295 22.553 156.024 22.1115 155.661 21.7582C155.6 21.6997 155.538 21.6436 155.472 21.59C155.461 21.58 155.449 21.5701 155.437 21.5603C154.601 20.8699 153.529 20.5246 152.22 20.5246C151.115 20.5246 149.954 20.7514 148.738 21.2048ZM158.493 20.9452V21.7582L159.53 21.8423V28.7669C159.53 28.8178 159.53 28.8684 159.531 28.9185C159.539 29.468 159.588 29.9722 159.678 30.4313C159.738 30.7362 159.817 31.0212 159.913 31.2862C160.122 31.8562 160.414 32.3341 160.792 32.7198C160.829 32.7575 160.868 32.7944 160.908 32.8305C161.75 33.5978 163.01 33.9814 164.688 33.9814L167.099 30.477C167.099 30.94 167.14 31.3596 167.221 31.7358C167.291 32.0583 167.391 32.3489 167.52 32.6077C167.557 32.6794 167.597 32.7491 167.64 32.8169C167.868 33.1803 168.177 33.4872 168.565 33.7378C168.652 33.7937 168.743 33.8469 168.838 33.8973L172.734 31.6825L172.426 30.8415L171.585 31.262C171.563 31.2332 171.541 31.2037 171.52 31.1735C171.377 30.9666 171.265 30.7286 171.184 30.4596C171.177 30.4376 171.171 30.4153 171.164 30.3929C171.156 30.353 171.147 30.3105 171.139 30.2656C171.09 29.9833 171.062 29.6023 171.054 29.1225C171.053 29.0353 171.052 28.9448 171.052 28.851V20.9452H166.09V21.7582L167.099 21.8423V29.1874L165.894 30.3088C165.165 30.2901 164.576 30.0565 164.128 29.6079C164.101 29.5788 164.075 29.5489 164.05 29.5183C163.672 29.0584 163.483 28.4341 163.483 27.6455V20.9452H158.493ZM173.959 32.6637L172.922 32.7478V33.5609H178.95V32.7478L177.912 32.6637L178.052 14.385L177.66 13.7122L172.474 15.2821L172.754 16.0951L173.819 15.8708L173.959 32.6637ZM179.456 21.1414V22.0385H181.335V29.4958C181.335 30.0557 181.377 30.5594 181.461 31.0068C181.569 31.5781 181.745 32.0577 181.991 32.4456C182.073 32.5753 182.162 32.6947 182.26 32.8039C182.895 33.4768 183.904 33.8132 185.287 33.8132L188.708 31.3461L188.231 30.5054L187.194 31.0938C187.193 31.0938 187.193 31.0938 187.192 31.0938C186.614 31.0934 186.147 30.8878 185.792 30.477C185.665 30.3212 185.561 30.1305 185.482 29.905C185.352 29.5352 185.287 29.0718 185.287 28.5146V22.0666L188.624 22.1226V20.9452H185.344L185.484 17.0763L184.559 16.796C184.489 16.876 184.418 16.9557 184.347 17.0352C183.735 17.7178 183.071 18.3776 182.356 19.0144C182.317 19.0492 182.277 19.0839 182.238 19.1185C182.162 19.1856 182.085 19.2525 182.007 19.3191C181.779 19.5149 181.555 19.6995 181.335 19.8732C181.244 19.9447 181.154 20.0143 181.065 20.082C180.501 20.5097 179.965 20.8628 179.456 21.1414ZM150.427 30.3929C150.431 30.5952 150.451 30.7784 150.486 30.9423C150.5 31.0099 150.517 31.0742 150.537 31.1352C150.556 31.1966 150.579 31.2546 150.604 31.3093C150.648 31.4068 150.701 31.4938 150.762 31.5704C150.806 31.6212 150.851 31.6671 150.899 31.7081C150.972 31.7718 151.049 31.8235 151.131 31.8633C151.267 31.9297 151.415 31.9629 151.576 31.9629C151.792 31.9629 152.032 31.9043 152.297 31.7873C152.399 31.7423 152.504 31.6887 152.613 31.6264L152.585 31.0377L152.613 30.4209L152.697 28.823L150.538 29.3276C150.464 29.57 150.426 29.8961 150.426 30.3059C150.426 30.3068 150.426 30.3078 150.426 30.3088C150.426 30.3131 150.426 30.3173 150.426 30.3216C150.426 30.3456 150.426 30.3694 150.427 30.3929Z" fill="url(#paint8_linear_6_281)"/>
<path d="M72.1659 24.6162V25.5588L70.954 25.5857V33.9614H70.0922L68.1262 32.6148C67.426 33.1714 66.663 33.6023 65.8371 33.9075C65.0291 34.2127 64.2032 34.3653 63.3594 34.3653C61.7794 34.3653 60.3879 34.0063 59.185 33.2881C57.9821 32.552 57.0485 31.5286 56.3842 30.2179C55.7198 28.8893 55.3877 27.3542 55.3877 25.6127C55.3877 23.9609 55.6839 22.3989 56.2764 20.9266C56.8869 19.4544 57.6589 18.2784 58.5925 17.3986C59.5082 16.8061 60.4867 16.3573 61.528 16.052C62.5873 15.7289 63.6287 15.5673 64.6521 15.5673C66.0166 15.5673 67.2644 15.8635 68.3955 16.456C69.5446 17.0305 70.4513 17.8385 71.1156 18.8798L67.803 21.6538C66.8156 19.984 65.6934 18.2065 64.4366 16.3213C63.1978 16.86 62.1834 17.8564 61.3934 19.3107C60.6034 20.765 60.2084 22.4168 60.2084 24.2661C60.2084 26.5463 60.7201 28.3417 61.7435 29.6524C62.7848 30.9451 64.2032 31.5914 65.9986 31.5914C66.2859 31.5914 66.5014 31.5824 66.645 31.5645V25.5857L65.3254 25.5588V24.6162H72.1659Z" fill="white"/>
<path d="M74.6472 16.1598L78.0944 15.3787V18.4489L74.6472 18.9606V16.1598ZM78.3637 33.0996L79.3602 33.1804V33.9614H73.5699V33.1804L74.5664 33.0996L74.4856 23.512L73.4622 23.7275L73.1929 22.9465L78.0675 21.4383L78.4445 22.0847L78.3637 33.0996Z" fill="white"/>
<path d="M80.4505 33.1804L81.4469 33.0996L81.3123 16.9677L80.2889 17.1831L80.0196 16.4021L85.0019 14.894L85.3789 15.5403L85.2443 33.0996L86.2407 33.1804V33.9614H80.4505V33.1804Z" fill="white"/>
<path d="M100.462 32.1031L96.5304 34.2307C96.0456 33.9434 95.6865 33.5664 95.4531 33.0996C95.2377 32.6148 95.112 31.9954 95.0761 31.2413L92.4099 34.3653C91.3685 34.3653 90.4439 34.1319 89.636 33.6651C88.846 33.1804 88.2265 32.525 87.7777 31.6991C87.3288 30.8553 87.1044 29.9037 87.1044 28.8444C87.1044 27.9288 87.257 26.9592 87.5622 25.9358C87.8675 24.9124 88.2355 24.1135 88.6664 23.5389C89.0076 23.0542 89.627 22.5874 90.5247 22.1385C91.4224 21.6717 92.1765 21.4383 92.7869 21.4383C93.3255 21.4383 94.0617 21.5281 94.9953 21.7076L94.9414 16.9677L93.918 17.1831L93.6487 16.4021L98.631 14.894L99.0081 15.5403L98.8465 29.4908C98.8465 30.1371 98.8824 30.6219 98.9542 30.9451C99.026 31.2503 99.1517 31.5196 99.3312 31.753L100.139 31.376L100.462 32.1031ZM90.9825 27.2285C90.9825 28.0544 91.1172 28.7726 91.3865 29.383C91.6558 29.9935 92.0059 30.4603 92.4368 30.7835C92.8857 31.1067 93.3615 31.2682 93.8642 31.2682L95.0761 30.0563L95.0222 24.6162C93.8552 24.0596 92.7331 23.6826 91.6558 23.4851C91.207 24.5085 90.9825 25.7563 90.9825 27.2285Z" fill="white"/>
<path d="M107.396 21.4383C108.976 21.4383 110.215 22.0128 111.113 23.1619C112.028 24.293 112.477 25.8281 112.459 27.7672L105.026 28.0096C105.152 29.0689 105.52 29.8768 106.13 30.4334C106.741 30.99 107.549 31.2682 108.554 31.2682C109.955 31.2682 111.095 30.8822 111.974 30.1102L112.459 30.5411C111.831 31.744 110.978 32.6866 109.901 33.3689C108.841 34.0332 107.71 34.3653 106.507 34.3653C104.874 34.3653 103.572 33.8267 102.602 32.7495C101.651 31.6543 101.175 30.182 101.175 28.3327C101.175 27.2375 101.39 26.1513 101.821 25.074C102.27 23.9968 102.836 23.0991 103.518 22.3809C103.985 22.1116 104.586 21.8872 105.322 21.7076C106.059 21.5281 106.75 21.4383 107.396 21.4383ZM108.473 26.8784C108.455 25.6216 108.276 24.6252 107.935 23.8891C107.594 23.1529 107.109 22.7131 106.48 22.5694C106.032 23.0362 105.664 23.6916 105.376 24.5354C105.107 25.3613 104.972 26.2141 104.972 27.0939V27.1747L108.473 26.8784Z" fill="white"/>
<path d="M126.684 32.1031L122.752 34.2307C122.267 33.9434 121.908 33.5664 121.674 33.0996C121.459 32.6148 121.333 31.9954 121.297 31.2413L118.631 34.3653C117.59 34.3653 116.665 34.1319 115.857 33.6651C115.067 33.1804 114.448 32.525 113.999 31.6991C113.55 30.8553 113.326 29.9037 113.326 28.8444C113.326 27.9288 113.478 26.9592 113.783 25.9358C114.089 24.9124 114.457 24.1135 114.888 23.5389C115.229 23.0542 115.848 22.5874 116.746 22.1385C117.644 21.6717 118.398 21.4383 119.008 21.4383C119.547 21.4383 120.283 21.5281 121.217 21.7076L121.163 16.9677L120.139 17.1831L119.87 16.4021L124.852 14.894L125.229 15.5403L125.068 29.4908C125.068 30.1371 125.104 30.6219 125.175 30.9451C125.247 31.2503 125.373 31.5196 125.552 31.753L126.36 31.376L126.684 32.1031ZM117.204 27.2285C117.204 28.0544 117.338 28.7726 117.608 29.383C117.877 29.9935 118.227 30.4603 118.658 30.7835C119.107 31.1067 119.583 31.2682 120.085 31.2682L121.297 30.0563L121.243 24.6162C120.076 24.0596 118.954 23.6826 117.877 23.4851C117.428 24.5085 117.204 25.7563 117.204 27.2285Z" fill="white"/>
<path fill-rule="evenodd" clip-rule="evenodd" d="M74.4856 23.512L74.5664 33.0996L73.57 33.1804V33.9614H79.3602V33.1804L78.3637 33.0996L78.4445 22.0847L78.0675 21.4383L73.1929 22.9465L73.4622 23.7275L74.4856 23.512ZM72.1659 25.5588V24.6162H65.3254V25.5588L66.645 25.5857V31.5645C66.5014 31.5824 66.2859 31.5914 65.9987 31.5914C65.7871 31.5914 65.5807 31.5824 65.3796 31.5645C65.2342 31.5515 65.0915 31.5338 64.9516 31.5115C64.9446 31.5103 64.9376 31.5092 64.9306 31.5081C64.594 31.453 64.2733 31.3707 63.9684 31.2612C63.8392 31.2147 63.7128 31.1633 63.5892 31.1071C62.8796 30.7839 62.2644 30.299 61.7435 29.6524C60.7201 28.3417 60.2084 26.5463 60.2084 24.2661C60.2084 22.4372 60.5948 20.8014 61.3674 19.3589C61.376 19.3428 61.3847 19.3267 61.3934 19.3107C61.5999 18.9306 61.8217 18.5817 62.0589 18.2642C62.087 18.2266 62.1153 18.1894 62.1438 18.1527C62.1498 18.1449 62.1558 18.1372 62.1619 18.1295C62.3728 17.86 62.5954 17.6144 62.8297 17.3927C63.3151 16.9332 63.8508 16.5761 64.4366 16.3213C64.5089 16.4297 64.5807 16.5378 64.6521 16.6455C65.139 17.38 65.6052 18.0981 66.0506 18.7995C66.0972 18.8729 66.1436 18.946 66.1897 19.019C66.7415 19.8921 67.2608 20.7392 67.7478 21.5604C67.7663 21.5915 67.7847 21.6227 67.8031 21.6537L71.1156 18.8798C70.8005 18.3858 70.4308 17.9443 70.0065 17.5553C69.6749 17.2513 69.31 16.9794 68.9118 16.7396C68.7455 16.6395 68.5734 16.5449 68.3956 16.456C68.2905 16.401 68.1845 16.3485 68.0774 16.2986C67.277 15.9254 66.4203 15.6951 65.5074 15.6075C65.2276 15.5807 64.9425 15.5673 64.6521 15.5673C64.4737 15.5673 64.2947 15.5722 64.1152 15.582C63.2651 15.6285 62.4027 15.7852 61.5281 16.052C60.7111 16.2915 59.9328 16.6193 59.1932 17.0356C58.9901 17.1499 58.7898 17.2709 58.5925 17.3986C57.6589 18.2784 56.8869 19.4544 56.2764 20.9266C55.684 22.3988 55.3877 23.9609 55.3877 25.6127C55.3877 27.3542 55.7199 28.8893 56.3842 30.2179C57.0485 31.5286 57.9821 32.552 59.185 33.2881C60.388 34.0063 61.7794 34.3653 63.3594 34.3653C63.459 34.3653 63.5583 34.3632 63.6573 34.359C64.3979 34.3272 65.1245 34.1767 65.8371 33.9075C65.8912 33.8875 65.9451 33.867 65.9987 33.8459C66.3007 33.727 66.5943 33.591 66.8792 33.4379C67.232 33.2482 67.5717 33.0322 67.8982 32.79C67.975 32.733 68.051 32.6746 68.1262 32.6148L70.0922 33.9614H70.954V25.5857L72.1659 25.5588ZM72.262 36.7239C71.8655 36.912 71.422 37.0172 70.954 37.0172H70.0922C69.4759 37.0172 68.8739 36.8308 68.3654 36.4825L68.0554 36.2702C67.6834 36.4574 67.3003 36.6241 66.9066 36.77C65.765 37.2 64.5772 37.4211 63.3594 37.4211C61.2999 37.4211 59.3534 36.9476 57.6186 35.9119L57.59 35.8946C55.8831 34.8501 54.5676 33.3931 53.6585 31.5994L53.651 31.5845C52.7408 29.7642 52.3319 27.7471 52.3319 25.6127C52.3319 23.5862 52.6972 21.6354 53.4416 19.7857L53.4537 19.7562C54.1904 17.9793 55.1828 16.4129 56.4969 15.1746C56.6314 15.0478 56.7772 14.9335 56.9325 14.833C58.0899 14.0841 59.3324 13.5129 60.6524 13.1243C61.9718 12.7234 63.3082 12.5115 64.6521 12.5115C66.466 12.5115 68.1965 12.9075 69.7879 13.7357C70.5183 14.1034 71.1898 14.5451 71.7959 15.0597C72.1544 14.1314 72.9556 13.4098 73.972 13.1795L77.4192 12.3985C78.3253 12.1932 79.2757 12.4113 80.0016 12.9911C80.0678 13.044 80.1315 13.0994 80.1925 13.157L84.1166 11.9692C85.4705 11.5594 86.9287 12.1324 87.6414 13.3543L88.0185 14.0006C88.2951 14.4748 88.4389 15.0148 88.4346 15.5638L88.402 19.8158C88.6469 19.6709 88.8934 19.5382 89.1364 19.4162C89.7716 19.0873 90.471 18.7865 91.2078 18.5952C91.139 18.4629 91.0791 18.3241 91.0292 18.1793L90.7599 17.3983C90.4891 16.613 90.5496 15.7513 90.9276 15.0117C91.3056 14.272 91.9684 13.718 92.7634 13.4774L97.7457 11.9692C99.0996 11.5594 100.558 12.1324 101.271 13.3543L101.648 14.0006C101.926 14.4783 102.07 15.0227 102.064 15.5757L102.016 19.7198C102.806 19.268 103.695 18.9592 104.598 18.7388C105.532 18.5111 106.468 18.3825 107.396 18.3825C109.652 18.3825 111.679 19.1922 113.183 20.8758C113.842 20.2598 114.616 19.7885 115.358 19.4161C115.993 19.0872 116.692 18.7865 117.429 18.5952C117.36 18.4629 117.3 18.3241 117.25 18.1793L116.981 17.3983C116.71 16.613 116.771 15.7514 117.149 15.0117C117.527 14.272 118.19 13.718 118.985 13.4774L123.967 11.9692C125.321 11.5594 126.779 12.1324 127.492 13.3543L127.869 14.0006C128.148 14.4783 128.291 15.0227 128.285 15.5757L128.131 28.8852C128.573 29.1999 128.928 29.6298 129.153 30.1349L129.476 30.862C130.124 32.3201 129.541 34.0314 128.138 34.7907L124.206 36.9183C123.261 37.4294 122.118 37.4071 121.194 36.8596C121.041 36.7689 120.892 36.6722 120.748 36.5692C120.182 37.1132 119.424 37.4211 118.631 37.4211C117.117 37.4211 115.653 37.0765 114.328 36.311C114.305 36.2976 114.282 36.2838 114.259 36.2697C113.696 35.924 113.185 35.5208 112.73 35.0646C112.358 35.3861 111.96 35.6819 111.536 35.9505L111.524 35.9578C109.999 36.9145 108.308 37.4211 106.507 37.4211C104.389 37.4211 102.434 36.7699 100.883 35.3502L97.9846 36.9183C97.0401 37.4294 95.8965 37.4071 94.9725 36.8596C94.8196 36.7689 94.6709 36.6722 94.5267 36.5692C93.9605 37.1132 93.2028 37.4211 92.4099 37.4211C90.9151 37.4211 89.4699 37.0854 88.1586 36.3405C87.6343 36.7638 86.9671 37.0172 86.2407 37.0172H80.4505C80.2644 37.0172 80.0822 37.0005 79.9053 36.9687C79.7284 37.0005 79.5463 37.0172 79.3602 37.0172H73.57C73.1019 37.0172 72.6585 36.912 72.262 36.7239ZM86.2407 33.9614V33.1804L85.2443 33.0996L85.3789 15.5403L85.0019 14.894L80.0196 16.4021L80.2889 17.1831L81.3123 16.9677L81.4469 33.0996L80.4505 33.1804V33.9614H86.2407ZM78.0944 15.3787L74.6472 16.1598V18.9606L78.0944 18.4489V15.3787ZM64.2866 21.7415C64.0142 21.8399 63.7599 21.976 63.5298 22.1433C63.6284 21.7812 63.7532 21.4413 63.9017 21.1211C64.032 21.3296 64.1603 21.5364 64.2866 21.7415ZM88.2202 24.2568C87.9755 24.7258 87.7562 25.2855 87.5623 25.9358C87.257 26.9592 87.1044 27.9288 87.1044 28.8444C87.1044 29.3543 87.1564 29.8392 87.2604 30.2991C87.3725 30.7948 87.5449 31.2614 87.7777 31.6991C87.933 31.9849 88.1087 32.2502 88.3048 32.4951C88.5047 32.7447 88.7259 32.9731 88.9682 33.1804C89.0736 33.2705 89.1831 33.3566 89.2965 33.4388C89.4059 33.518 89.5191 33.5934 89.636 33.6651C90.4439 34.1319 91.3686 34.3653 92.4099 34.3653L95.0761 31.2413C95.0808 31.3409 95.0871 31.438 95.095 31.5329C95.0965 31.5509 95.0981 31.5687 95.0997 31.5865C95.1378 32.0097 95.2076 32.3852 95.3091 32.7132C95.3516 32.8503 95.3996 32.9791 95.4531 33.0996C95.549 33.2913 95.666 33.4678 95.8042 33.6292C96.0026 33.8609 96.2447 34.0614 96.5304 34.2307L100.462 32.1031L100.139 31.376L99.3313 31.753C99.3278 31.7485 99.3244 31.7441 99.321 31.7396C99.1469 31.5093 99.0247 31.2445 98.9542 30.9451C98.8829 30.6239 98.8469 30.1432 98.8465 29.503C98.8465 29.4989 98.8465 29.4948 98.8465 29.4908L99.0081 15.5403L98.631 14.894L93.6487 16.4021L93.9181 17.1831L94.9414 16.9677L94.9953 21.7076C94.0617 21.5281 93.3256 21.4383 92.7869 21.4383C92.5502 21.4383 92.2918 21.4734 92.0118 21.5436C91.9872 21.5498 91.9625 21.5562 91.9377 21.5629C91.5147 21.6768 91.0437 21.8686 90.5247 22.1385C90.209 22.2964 89.9276 22.4565 89.6807 22.6188C89.2257 22.918 88.8876 23.2247 88.6664 23.5389C88.5641 23.6754 88.4653 23.8245 88.37 23.9863C88.3191 24.0728 88.2692 24.163 88.2202 24.2568ZM91.9004 30.2551C92.0626 30.4608 92.2414 30.6369 92.4368 30.7835C92.8857 31.1067 93.3615 31.2682 93.8642 31.2682L95.0761 30.0563L95.0222 24.6162C94.8415 24.53 94.6618 24.4481 94.4832 24.3705C93.9066 24.12 93.3411 23.9144 92.7869 23.7536C92.4046 23.6427 92.0275 23.5532 91.6558 23.4851C91.589 23.6374 91.5272 23.7947 91.4703 23.957C91.4653 23.9713 91.4603 23.9856 91.4554 23.9999C91.3195 24.3961 91.2128 24.8216 91.1355 25.2764C91.1309 25.3034 91.1264 25.3305 91.122 25.3578C91.029 25.9349 90.9825 26.5585 90.9825 27.2285C90.9825 28.0544 91.1172 28.7726 91.3865 29.383C91.5337 29.7166 91.705 30.0073 91.9004 30.2551ZM101.176 28.5015C101.182 28.8446 101.204 29.1743 101.243 29.4908C101.244 29.5 101.245 29.5093 101.247 29.5186C101.276 29.7499 101.314 29.9741 101.362 30.1911C101.375 30.2509 101.388 30.3102 101.403 30.3689C101.405 30.379 101.408 30.3891 101.41 30.3992C101.442 30.5237 101.476 30.6457 101.513 30.7653C101.594 31.0246 101.69 31.2724 101.8 31.5086C102.013 31.9654 102.28 32.379 102.602 32.7495C102.804 32.9738 103.021 33.1747 103.251 33.3524C104.128 34.0277 105.214 34.3653 106.507 34.3653C106.882 34.3653 107.25 34.3331 107.611 34.2685C107.931 34.2114 108.245 34.1289 108.554 34.0211C109.015 33.8601 109.464 33.6427 109.901 33.3689C110.298 33.1175 110.664 32.8307 111 32.5086C111.502 32.0278 111.936 31.4682 112.301 30.8297C112.341 30.7597 112.381 30.6888 112.419 30.6169C112.433 30.5918 112.446 30.5665 112.459 30.5411L111.974 30.1102C111.932 30.1477 111.888 30.1843 111.844 30.2199C111.507 30.4942 111.132 30.7146 110.722 30.8812C110.649 30.9109 110.575 30.9388 110.499 30.9651C109.927 31.1644 109.288 31.2655 108.583 31.2682C108.579 31.2682 108.575 31.2682 108.57 31.2682C108.565 31.2682 108.56 31.2682 108.554 31.2682C108.177 31.2682 107.827 31.229 107.505 31.1504C107.342 31.1108 107.187 31.0611 107.038 31.0014C106.698 30.8646 106.396 30.6753 106.13 30.4334C106.039 30.3497 105.952 30.2603 105.871 30.1653C105.464 29.6867 105.196 29.064 105.067 28.2972C105.052 28.2034 105.038 28.1076 105.026 28.0095L112.459 27.7672C112.461 27.536 112.457 27.3105 112.446 27.0908C112.441 26.9988 112.435 26.9079 112.428 26.8179C112.391 26.3399 112.321 25.8903 112.218 25.4691C112.155 25.2103 112.08 24.9623 111.992 24.725C111.834 24.2985 111.636 23.9067 111.398 23.5495C111.308 23.4154 111.213 23.2862 111.113 23.1619C111.009 23.0298 110.902 22.9052 110.789 22.7883C110.74 22.7363 110.689 22.6858 110.637 22.6368C109.794 21.8378 108.714 21.4383 107.396 21.4383C107.18 21.4383 106.958 21.4484 106.732 21.4685C106.347 21.5027 105.947 21.566 105.533 21.6584C105.463 21.674 105.393 21.6904 105.322 21.7076C104.586 21.8872 103.985 22.1116 103.518 22.3809C103.179 22.7381 102.868 23.1397 102.587 23.5857C102.58 23.5968 102.573 23.6078 102.566 23.6189C102.492 23.737 102.42 23.8582 102.35 23.9825C102.211 24.2298 102.08 24.4894 101.957 24.7612C101.911 24.8637 101.866 24.968 101.821 25.074C101.39 26.1513 101.175 27.2375 101.175 28.3327C101.175 28.3894 101.175 28.4456 101.176 28.5015ZM104.972 27.1747V27.0939C104.972 26.9533 104.976 26.8134 104.983 26.6741C105.007 26.1825 105.074 25.6995 105.184 25.225C105.186 25.216 105.188 25.207 105.19 25.198C105.192 25.1915 105.194 25.185 105.195 25.1786C105.197 25.1711 105.199 25.1636 105.2 25.1562C105.217 25.0855 105.236 25.015 105.254 24.9447C105.256 24.9378 105.258 24.9308 105.26 24.9239C105.296 24.7938 105.334 24.6643 105.376 24.5354C105.41 24.4362 105.445 24.3396 105.481 24.2457C105.505 24.1821 105.53 24.1198 105.555 24.0586C105.626 23.8889 105.7 23.7284 105.778 23.577C105.985 23.1772 106.219 22.8413 106.48 22.5694C106.83 22.6493 107.135 22.821 107.396 23.0844C107.597 23.2878 107.772 23.5458 107.92 23.8585C107.925 23.8686 107.93 23.8788 107.935 23.8891C107.955 23.9336 107.975 23.9792 107.995 24.0256C108.073 24.2119 108.141 24.4135 108.2 24.6304C108.22 24.7009 108.238 24.7731 108.255 24.8468C108.285 24.9745 108.311 25.107 108.335 25.2444C108.339 25.2659 108.342 25.2874 108.346 25.3091C108.423 25.7771 108.465 26.3002 108.473 26.8784L104.972 27.1747ZM114.441 24.2568C114.197 24.7258 113.977 25.2855 113.784 25.9358C113.631 26.4468 113.517 26.9444 113.44 27.4285C113.422 27.545 113.406 27.6608 113.392 27.7758C113.359 28.0502 113.338 28.3201 113.33 28.5856C113.327 28.6723 113.326 28.7586 113.326 28.8444C113.326 29.078 113.337 29.3064 113.358 29.5295C113.395 29.9072 113.464 30.2698 113.563 30.6174C113.623 30.8269 113.694 31.0309 113.777 31.2294C113.844 31.3895 113.918 31.5461 113.999 31.6991C114.205 32.0783 114.447 32.4215 114.725 32.7287C115.052 33.0908 115.43 33.4029 115.857 33.6651C116.665 34.1319 117.59 34.3653 118.631 34.3653L121.297 31.2413C121.302 31.3409 121.308 31.438 121.316 31.5329C121.318 31.5509 121.319 31.5687 121.321 31.5865C121.359 32.0097 121.429 32.3852 121.53 32.7132C121.573 32.8503 121.621 32.9791 121.674 33.0996C121.77 33.2913 121.887 33.4678 122.025 33.6292C122.224 33.8609 122.466 34.0614 122.752 34.2307L126.684 32.1031L126.36 31.376L125.553 31.753C125.549 31.7485 125.546 31.7441 125.542 31.7396C125.368 31.5093 125.246 31.2445 125.175 30.9451C125.104 30.6239 125.068 30.1432 125.068 29.503C125.068 29.4989 125.068 29.4948 125.068 29.4908L125.229 15.5403L124.852 14.894L119.87 16.4021L120.139 17.1831L121.163 16.9677L121.217 21.7076C120.283 21.5281 119.547 21.4383 119.008 21.4383C118.771 21.4383 118.513 21.4734 118.233 21.5436C118.208 21.5498 118.184 21.5562 118.159 21.5629C117.736 21.6768 117.265 21.8686 116.746 22.1385C116.43 22.2964 116.149 22.4565 115.902 22.6188C115.447 22.918 115.109 23.2247 114.888 23.5389C114.871 23.5616 114.854 23.5846 114.837 23.608C114.699 23.8005 114.567 24.0168 114.441 24.2568ZM117.343 25.3578C117.25 25.9349 117.204 26.5585 117.204 27.2285C117.204 28.0544 117.338 28.7726 117.608 29.383C117.755 29.7166 117.926 30.0073 118.122 30.2551C118.284 30.4608 118.463 30.6369 118.658 30.7835C119.107 31.1067 119.583 31.2682 120.085 31.2682L121.297 30.0563L121.243 24.6162C121.063 24.53 120.883 24.4481 120.704 24.3705C120.128 24.12 119.562 23.9144 119.008 23.7536C118.626 23.6427 118.249 23.5532 117.877 23.4851C117.81 23.6374 117.748 23.7947 117.692 23.957C117.687 23.9713 117.682 23.9856 117.677 23.9999C117.541 24.3961 117.434 24.8216 117.357 25.2764C117.352 25.3034 117.348 25.3305 117.343 25.3578Z" fill="url(#paint9_linear_6_281)"/>
<path fill-rule="evenodd" clip-rule="evenodd" d="M74.5665 33.0996L73.57 33.1804V33.9614H79.3602V33.1804L78.3638 33.0996L78.4446 22.0846L78.0675 21.4383L73.193 22.9464L73.4623 23.7275L74.4857 23.512L74.5665 33.0996ZM80.4505 33.1804V33.9614H86.2408V33.1804L85.2443 33.0996L85.379 15.5403L85.0019 14.894L80.0196 16.4021L80.289 17.1831L81.3123 16.9677L81.447 33.0996L80.4505 33.1804ZM79.7451 21.1347L79.7246 18.6825C79.7103 18.6771 79.696 18.6715 79.6819 18.6657C79.6023 19.2513 79.2051 19.7437 78.6575 19.9489C78.9823 20.0775 79.2652 20.3121 79.4513 20.6311L79.7451 21.1347ZM76.1348 20.3593L74.8825 20.5452C74.4216 20.6136 73.9538 20.478 73.6009 20.1737C73.2481 19.8694 73.0453 19.4265 73.0453 18.9606V16.1597C73.0453 15.4114 73.5634 14.7627 74.2933 14.5973L77.7405 13.8163C78.2155 13.7087 78.7137 13.823 79.0943 14.127C79.3333 14.318 79.5097 14.5707 79.6078 14.853L84.5378 13.3607C85.2476 13.1458 86.012 13.4462 86.3857 14.0868L86.7627 14.7331C86.9078 14.9817 86.9831 15.2648 86.9809 15.5526L86.9216 23.2916C87.0608 23.0447 87.2103 22.8123 87.3712 22.5961C87.935 21.8062 88.8192 21.2014 89.797 20.7113C90.7871 20.1977 91.8066 19.8363 92.787 19.8363C92.9708 19.8363 93.1661 19.8442 93.3723 19.8594L93.3589 18.6844C92.9236 18.522 92.5648 18.1728 92.4036 17.7054L92.1343 16.9244C91.9924 16.5127 92.0241 16.0609 92.2223 15.6732C92.4204 15.2854 92.7679 14.995 93.1847 14.8688L98.167 13.3607C98.8767 13.1458 99.6412 13.4462 100.015 14.0868L100.392 14.7331C100.538 14.9836 100.613 15.269 100.61 15.5589L100.511 24.0708C100.997 23.0052 101.608 22.066 102.357 21.2775C102.463 21.1659 102.584 21.0702 102.718 20.9933C103.357 20.6242 104.114 20.3534 104.943 20.1512C105.783 19.9464 106.602 19.8363 107.396 19.8363C109.417 19.8363 111.138 20.5984 112.366 22.1645C112.659 22.5276 112.911 22.9158 113.123 23.3266C113.268 23.0667 113.424 22.8225 113.592 22.5961C114.156 21.8062 115.04 21.2015 116.018 20.7114C117.008 20.1977 118.028 19.8363 119.008 19.8363C119.192 19.8363 119.387 19.8442 119.594 19.8594L119.58 18.6844C119.145 18.522 118.786 18.1728 118.625 17.7054L118.356 16.9244C118.214 16.5127 118.245 16.0609 118.444 15.6732C118.642 15.2854 118.989 14.995 119.406 14.8688L124.388 13.3607C125.098 13.1458 125.862 13.4462 126.236 14.0868L126.613 14.7331C126.759 14.9836 126.835 15.269 126.831 15.5589L126.67 29.5001C126.67 29.6104 126.671 29.7118 126.673 29.8048C126.757 29.8215 126.84 29.8451 126.922 29.8755C127.325 30.0262 127.65 30.3324 127.824 30.7253L128.148 31.4525C128.487 32.2169 128.182 33.114 127.446 33.5121L123.514 35.6396C123.019 35.9076 122.419 35.8959 121.935 35.6089C121.43 35.3097 120.994 34.9303 120.647 34.4707L119.85 35.4053C119.545 35.7619 119.1 35.9673 118.631 35.9673C117.342 35.9673 116.135 35.6756 115.056 35.0522C115.051 35.0496 115.047 35.047 115.042 35.0444C115.035 35.0399 115.027 35.0352 115.019 35.0305C114.123 34.4807 113.392 33.7576 112.834 32.8777C112.246 33.6002 111.554 34.2181 110.758 34.7223L110.752 34.7261C109.448 35.5437 108.024 35.9673 106.507 35.9673C104.484 35.9673 102.725 35.2809 101.412 33.8211C101.405 33.8142 101.399 33.8072 101.393 33.8002C101.318 33.7143 101.246 33.6269 101.177 33.5381L97.2928 35.6396C96.7976 35.9076 96.1981 35.8959 95.7138 35.6089C95.2089 35.3097 94.7732 34.9303 94.4261 34.4707L93.6285 35.4053C93.3241 35.7619 92.8788 35.9673 92.41 35.9673C91.1206 35.9673 89.9135 35.6756 88.8346 35.0522C88.8223 35.0452 88.8102 35.0379 88.7982 35.0305C88.442 34.812 88.1118 34.5661 87.8082 34.2938C87.6552 35.019 87.0116 35.5634 86.2408 35.5634H80.4505C80.2591 35.5634 80.0756 35.5298 79.9054 35.4682C79.7352 35.5298 79.5517 35.5634 79.3602 35.5634H73.57C73.0299 35.5634 72.5522 35.2961 72.262 34.8866C71.9718 35.2961 71.4942 35.5634 70.9541 35.5634H70.0923C69.7692 35.5634 69.4536 35.4656 69.187 35.2831L68.135 34.5625C67.5856 34.9006 67.0063 35.1829 66.398 35.4081C65.4151 35.7787 64.3994 35.9673 63.3594 35.9673C61.5281 35.9673 59.8456 35.5482 58.3639 34.6636L58.3489 34.6545C56.8818 33.7567 55.7479 32.506 54.9553 30.9422L54.9514 30.9343C54.1582 29.348 53.7858 27.5602 53.7858 25.6126C53.7858 23.7644 54.1182 21.9986 54.7903 20.3285L54.7967 20.313C55.4733 18.681 56.3609 17.3004 57.4939 16.2327C57.5645 16.1662 57.6409 16.1063 57.7223 16.0536C58.7647 15.3791 59.8817 14.8661 61.0691 14.5172C62.2647 14.1532 63.4607 13.9653 64.6521 13.9653C66.2521 13.9653 67.7531 14.3138 69.1256 15.0299C70.5167 15.7283 71.6424 16.7267 72.4663 18.0182C72.8991 18.6968 72.7613 19.5913 72.1442 20.108L68.8316 22.882C68.7736 22.9306 68.7125 22.9747 68.649 23.0142H71.5924C71.5809 22.7422 71.6388 22.4692 71.7642 22.2219C71.9604 21.835 72.3051 21.5442 72.7195 21.416L76.1348 20.3593ZM65.3254 24.6162V25.5588L66.6451 25.5857V31.5645C66.5014 31.5824 66.286 31.5914 65.9987 31.5914C65.7871 31.5914 65.5808 31.5824 65.3796 31.5645C65.2658 31.5543 65.1536 31.5413 65.0431 31.5253C63.6925 31.3308 62.5927 30.7064 61.7436 29.6523C60.7202 28.3417 60.2085 26.5463 60.2085 24.2661C60.2085 22.4168 60.6035 20.765 61.3935 19.3107C61.8187 18.5278 62.309 17.8777 62.8643 17.3601C63.3406 16.9163 63.8647 16.57 64.4367 16.3213C64.509 16.4297 64.5808 16.5378 64.6521 16.6454C64.7703 16.8237 64.8872 17.001 65.0029 17.1773C65.7018 18.2422 66.3562 19.2715 66.9661 20.2651C67.2551 20.736 67.5341 21.1989 67.8031 21.6537L71.1157 18.8798C70.4514 17.8385 69.5447 17.0305 68.3956 16.456C67.6243 16.052 66.7988 15.7857 65.919 15.6572C65.7831 15.6373 65.6459 15.6208 65.5074 15.6075C65.2276 15.5807 64.9425 15.5673 64.6521 15.5673C64.4737 15.5673 64.2948 15.5722 64.1152 15.582C63.4548 15.6181 62.7869 15.7208 62.1117 15.8899C61.9178 15.9384 61.7232 15.9925 61.5281 16.052C60.4868 16.3572 59.5083 16.8061 58.5926 17.3986C57.659 18.2783 56.8869 19.4543 56.2765 20.9266C55.684 22.3988 55.3878 23.9609 55.3878 25.6126C55.3878 27.3542 55.7199 28.8893 56.3842 30.2179C57.0485 31.5286 57.9821 32.552 59.1851 33.2881C60.388 34.0062 61.7795 34.3653 63.3594 34.3653C64.2033 34.3653 65.0292 34.2127 65.8371 33.9075C66.663 33.6023 67.4261 33.1714 68.1263 32.6148L70.0923 33.9614H70.9541V25.5857L72.166 25.5588V24.6162H65.3254ZM72.5561 27.1129C72.6816 27.0815 72.8011 27.0354 72.9128 26.9764L72.9526 31.7018C72.8083 31.762 72.675 31.8426 72.5561 31.94V27.1129ZM63.9677 18.5218C63.55 18.9081 63.1588 19.417 62.8012 20.0754C62.1531 21.2685 61.8105 22.652 61.8105 24.2661C61.8105 26.3131 62.2686 27.7161 62.9988 28.6568C63.5271 29.309 64.1837 29.7292 65.0431 29.901V27.1359C64.2915 27.0022 63.7234 26.3457 63.7234 25.5588V24.6162C63.7234 23.7314 64.4407 23.0142 65.3254 23.0142H66.9572C66.7408 22.8796 66.557 22.6937 66.4242 22.4692C65.6844 21.2183 64.8658 19.9026 63.9677 18.5218ZM95.1857 32.2123C95.2495 32.5461 95.3387 32.8419 95.4532 33.0996C95.4707 33.1346 95.489 33.1691 95.5079 33.2032C95.7412 33.6225 96.0821 33.965 96.5305 34.2307L100.462 32.1031L100.139 31.376L99.3313 31.753C99.3279 31.7485 99.3245 31.7441 99.3211 31.7396C99.1733 31.5441 99.0629 31.3237 98.9898 31.0785C98.9768 31.0348 98.9649 30.9903 98.9543 30.9451C98.9118 30.7541 98.8819 30.5067 98.8646 30.203C98.8526 29.9926 98.8465 29.7552 98.8465 29.4908L99.0081 15.5403L98.6311 14.894L93.6488 16.4021L93.9181 17.1831L94.9415 16.9677L94.9954 21.7076C94.3725 21.5878 93.8376 21.508 93.3905 21.4681C93.1675 21.4482 92.9663 21.4383 92.787 21.4383C92.1765 21.4383 91.4225 21.6717 90.5248 22.1385C89.627 22.5874 89.0076 23.0542 88.6665 23.5389C88.2356 24.1135 87.8675 24.9124 87.5623 25.9358C87.2571 26.9592 87.1045 27.9287 87.1045 28.8444C87.1045 29.9037 87.3289 30.8553 87.7778 31.6991C88.2266 32.525 88.846 33.1804 89.636 33.6651C90.444 34.1319 91.3686 34.3653 92.41 34.3653L93.6893 32.8663L93.6895 32.866L95.0762 31.2413C95.093 31.5945 95.1295 31.9182 95.1857 32.2123ZM95.0223 24.6162C93.8553 24.0596 92.7331 23.6826 91.6559 23.4851C91.207 24.5085 90.9826 25.7563 90.9826 27.2285C90.9826 28.0544 91.1173 28.7726 91.3866 29.383C91.6559 29.9935 92.006 30.4603 92.4369 30.7835C92.642 30.9311 92.8527 31.0451 93.0691 31.1253C93.3262 31.2206 93.5912 31.2682 93.8642 31.2682L95.0762 30.0563L95.0223 24.6162ZM93.4676 29.3993L93.4306 25.6676C93.1959 25.5744 92.965 25.4905 92.738 25.4155C92.6389 25.9436 92.5846 26.5454 92.5846 27.2285C92.5846 27.8832 92.6915 28.372 92.8523 28.7364C93.0299 29.139 93.2189 29.3614 93.3794 29.4875L93.4676 29.3993ZM101.411 30.402C101.442 30.5255 101.476 30.6466 101.513 30.7653C101.594 31.0246 101.69 31.2724 101.8 31.5086C101.88 31.6792 101.967 31.8438 102.062 32.0024C102.22 32.2684 102.401 32.5174 102.602 32.7495C103.572 33.8267 104.874 34.3653 106.507 34.3653C107.71 34.3653 108.842 34.0332 109.901 33.3689C110.312 33.1087 110.69 32.8107 111.035 32.4748C111.42 32.1006 111.765 31.6795 112.069 31.2113C112.192 31.0209 112.309 30.8228 112.419 30.6169C112.433 30.5917 112.446 30.5665 112.459 30.5411L111.975 30.1102C111.932 30.1477 111.888 30.1843 111.845 30.2199C111.842 30.2223 111.839 30.2247 111.836 30.2271C111.353 30.6165 110.797 30.8967 110.167 31.0676C109.675 31.2014 109.137 31.2682 108.554 31.2682C107.549 31.2682 106.741 30.9899 106.13 30.4334C105.874 30.1992 105.66 29.9205 105.489 29.5973C105.356 29.3469 105.249 29.0697 105.168 28.7658C105.128 28.6161 105.095 28.4599 105.067 28.2972C105.052 28.2034 105.038 28.1076 105.026 28.0095L112.459 27.7672C112.462 27.4392 112.452 27.1227 112.428 26.8178C112.411 26.595 112.387 26.3782 112.355 26.1677C112.322 25.9484 112.281 25.7357 112.233 25.5298C112.016 24.6054 111.642 23.8161 111.113 23.1619C110.317 22.1439 109.254 21.5768 107.923 21.4607C107.752 21.4458 107.576 21.4383 107.396 21.4383C107.18 21.4383 106.959 21.4483 106.732 21.4684C106.347 21.5027 105.947 21.566 105.533 21.6584C105.463 21.674 105.393 21.6904 105.322 21.7076C105.227 21.7309 105.133 21.755 105.042 21.7799C104.432 21.9462 103.924 22.1466 103.518 22.3809C102.836 23.0991 102.27 23.9968 101.821 25.074C101.391 26.1513 101.175 27.2375 101.175 28.3327C101.175 29.0848 101.254 29.7746 101.411 30.402ZM104.972 27.1747V27.0939C104.972 26.9533 104.976 26.8134 104.983 26.6742C104.987 26.585 104.993 26.4961 105 26.4075C105.024 26.1204 105.062 25.8361 105.115 25.5549C105.18 25.2106 105.267 24.8708 105.376 24.5354C105.552 24.0188 105.758 23.5728 105.995 23.1975C106.145 22.9598 106.306 22.7504 106.481 22.5694C106.81 22.6448 107.101 22.8018 107.351 23.0405C107.578 23.2565 107.773 23.5393 107.935 23.889C108.221 24.5073 108.394 25.3093 108.452 26.295C108.464 26.4828 108.471 26.6773 108.473 26.8784L104.972 27.1747ZM109.976 29.451L107.665 29.5263C107.89 29.6124 108.178 29.6662 108.554 29.6662C109.114 29.6662 109.582 29.5891 109.976 29.451ZM113.331 29.1117C113.331 29.1327 113.332 29.1536 113.333 29.1744C113.339 29.2942 113.347 29.4126 113.358 29.5295C113.418 30.1347 113.557 30.7013 113.777 31.2294C113.796 31.275 113.815 31.3203 113.836 31.3653C113.886 31.4784 113.941 31.5897 113.999 31.6991C114.448 32.525 115.067 33.1804 115.857 33.6651C116.665 34.1319 117.59 34.3653 118.631 34.3653L119.911 32.8663L119.911 32.866L121.297 31.2413C121.314 31.5945 121.351 31.9182 121.407 32.2123C121.471 32.5461 121.56 32.8419 121.674 33.0996C121.692 33.1346 121.71 33.1691 121.729 33.2032C121.962 33.6225 122.303 33.965 122.752 34.2307L126.684 32.1031L126.361 31.376L125.553 31.753C125.549 31.7485 125.546 31.7441 125.542 31.7396C125.395 31.5441 125.284 31.3237 125.211 31.0785C125.198 31.0348 125.186 30.9903 125.176 30.9451C125.133 30.7541 125.103 30.5067 125.086 30.203C125.074 29.9926 125.068 29.7552 125.068 29.4908L125.229 15.5403L124.852 14.894L119.87 16.4021L120.139 17.1831L121.163 16.9677L121.217 21.7076C120.594 21.5878 120.059 21.508 119.612 21.4681C119.389 21.4482 119.188 21.4383 119.008 21.4383C118.398 21.4383 117.644 21.6717 116.746 22.1385C115.848 22.5874 115.229 23.0542 114.888 23.5389C114.504 24.0509 114.17 24.741 113.886 25.6094C113.851 25.7155 113.817 25.8243 113.784 25.9358C113.594 26.5698 113.464 27.1831 113.392 27.7758C113.348 28.1398 113.326 28.496 113.326 28.8444C113.326 28.9343 113.327 29.0234 113.331 29.1117ZM121.244 24.6162C120.077 24.0596 118.954 23.6826 117.877 23.4851C117.428 24.5085 117.204 25.7563 117.204 27.2285C117.204 28.0544 117.339 28.7726 117.608 29.383C117.877 29.9935 118.227 30.4603 118.658 30.7835C118.863 30.9311 119.074 31.0451 119.29 31.1253C119.547 31.2206 119.812 31.2682 120.085 31.2682L121.297 30.0563L121.244 24.6162ZM119.689 29.3993L119.652 25.6676C119.417 25.5744 119.186 25.4905 118.959 25.4155C118.86 25.9436 118.806 26.5454 118.806 27.2285C118.806 27.8832 118.913 28.372 119.074 28.7364C119.251 29.139 119.44 29.3614 119.601 29.4875L119.689 29.3993ZM74.6473 16.1597L78.0945 15.3787V18.4489L74.6473 18.9606V16.1597Z" fill="#212529"/>
<path fill-rule="evenodd" clip-rule="evenodd" d="M148.678 13.1755C149.563 13.1755 150.28 13.8927 150.28 14.7775V15.7587C150.28 16.6286 149.586 17.3395 148.716 17.3602L148.622 17.3625L147.672 19.9029C149.209 19.2662 150.729 18.9226 152.22 18.9226C153.841 18.9226 155.313 19.3621 156.498 20.3593C156.643 20.4791 156.778 20.6052 156.904 20.7371C157.006 19.9506 157.678 19.3432 158.492 19.3432H163.483C164.02 19.3432 164.496 19.6078 164.786 20.0138C165.077 19.6078 165.553 19.3432 166.09 19.3432H171.052C171.529 19.3432 171.957 19.5514 172.25 19.8819L172.231 17.6097C171.78 17.4536 171.405 17.0979 171.239 16.6173L170.959 15.8043C170.817 15.3927 170.849 14.9409 171.047 14.5532C171.245 14.1654 171.592 13.875 172.009 13.7488L177.196 12.1789C177.905 11.964 178.67 12.2644 179.044 12.9049L179.436 13.5778C179.581 13.8264 179.656 14.1095 179.654 14.3973L179.618 19.1541C180.035 18.8634 180.484 18.5148 180.964 18.1037C181.843 17.3473 182.638 16.5602 183.351 15.7429C183.765 15.2679 184.42 15.0801 185.023 15.2628L185.948 15.5432C186.644 15.7541 187.111 16.4075 187.084 17.1343L187.004 19.3432H188.623C189.508 19.3432 190.225 20.0604 190.225 20.9451V22.1226C190.225 22.5522 190.053 22.9637 189.747 23.2649C189.44 23.566 189.026 23.7316 188.597 23.7244L186.889 23.6957V28.5146C186.889 28.8696 186.923 29.1169 186.965 29.2791C186.974 29.3138 186.983 29.3428 186.991 29.3668L187.44 29.1118C187.81 28.902 188.248 28.8477 188.657 28.9609C189.067 29.0741 189.415 29.3454 189.625 29.7152L190.101 30.5563C190.504 31.2672 190.307 32.1673 189.645 32.6454L186.224 35.1124C185.952 35.3092 185.624 35.4152 185.287 35.4152C183.681 35.4152 182.155 35.0269 181.095 33.9039C181.084 33.8928 181.074 33.8816 181.064 33.8702C180.868 33.6509 180.698 33.4142 180.551 33.1627V33.5608C180.551 34.4456 179.834 35.1628 178.949 35.1628H172.922C172.281 35.1628 171.728 34.7864 171.472 34.2426L169.629 35.29C169.152 35.561 168.57 35.5693 168.086 35.312C167.493 34.9969 166.978 34.5851 166.57 34.0731L166.008 34.8894C165.709 35.3238 165.216 35.5834 164.688 35.5834C162.708 35.5834 160.918 35.1116 159.659 33.8526L159.646 33.8401C159.449 33.6381 159.271 33.4231 159.111 33.1961C158.975 33.3415 158.81 33.4638 158.62 33.5532L154.499 35.4876C153.978 35.732 153.367 35.6785 152.896 35.3476C152.63 35.1602 152.392 34.9491 152.181 34.7167C151.893 34.8506 151.602 34.9733 151.308 35.0846C150.526 35.3882 149.735 35.5834 148.968 35.5834C147.774 35.5834 146.704 35.1384 145.897 34.2378C145.107 33.3566 144.759 32.2642 144.759 31.0938C144.759 30.6142 144.807 30.1197 144.895 29.6138C144.898 29.5963 144.901 29.5789 144.905 29.5615C145.012 29.0448 145.159 28.5408 145.377 28.1065C145.607 27.645 146.046 27.3229 146.556 27.2412L146.839 27.1957L146.281 26.9891C145.846 26.828 145.522 26.4972 145.357 26.0982L142.441 33.8975C142.234 34.4529 141.736 34.8482 141.148 34.925L137.504 35.4016C136.746 35.5008 136.023 35.0501 135.778 34.3254L130.053 17.3616L129.997 17.3602C129.127 17.3395 128.433 16.6286 128.433 15.7587V14.7775C128.433 13.8927 129.15 13.1755 130.035 13.1755H138.558C139.442 13.1755 140.16 13.8927 140.16 14.7775V15.7587C140.16 16.5063 139.647 17.1358 138.952 17.3117L140.546 23.4832L141.969 17.3234C141.249 17.1653 140.712 16.5238 140.712 15.7587V14.7775C140.712 13.8927 141.43 13.1755 142.314 13.1755H148.678ZM140.632 30.2247L136.904 15.7867L138.558 15.7587V14.7775H130.035V15.7587L131.213 15.7867L137.296 33.8132L140.941 33.3366L147.501 15.7867L148.678 15.7587V14.7775H142.314V15.7587L143.968 15.7867L140.632 30.2247ZM148.736 26.8915L151.188 26.4983C151.151 26.2661 151.082 26.1637 151.05 26.1247C151.046 26.121 151.043 26.1174 151.04 26.1137C151.037 26.1094 151.033 26.1052 151.03 26.1009L151.029 26.1003C151.025 26.0952 151.008 26.0725 150.933 26.044C150.843 26.0094 150.668 25.9674 150.37 25.9674C150.105 25.9674 149.808 25.999 149.477 26.071C149.455 26.0758 149.433 26.0801 149.411 26.0839C149.334 26.0973 149.262 26.1113 149.196 26.1258L149.044 26.4493C148.965 26.6174 148.86 26.7657 148.736 26.8915ZM148.812 24.5701C148.916 24.5467 149.024 24.5252 149.136 24.5056C149.566 24.4121 149.977 24.3654 150.37 24.3654C151.248 24.3654 151.884 24.6084 152.276 25.0943C152.669 25.5616 152.846 26.2157 152.809 27.0568L152.753 27.8698L146.809 28.823C146.679 29.0846 146.566 29.4397 146.473 29.8883C146.398 30.3181 146.361 30.72 146.361 31.0938C146.361 31.9348 146.604 32.6264 147.09 33.1684C147.576 33.7104 148.202 33.9814 148.968 33.9814C149.473 33.9814 150.061 33.8505 150.734 33.5889C150.813 33.559 150.892 33.5281 150.971 33.4962C151.097 33.4455 151.222 33.3922 151.347 33.3365C151.423 33.3025 151.499 33.2675 151.575 33.2316C151.98 33.0405 152.382 32.8232 152.781 32.5796C152.849 32.8053 152.939 33.0135 153.05 33.2042C153.18 33.4281 153.34 33.6278 153.529 33.8034C153.619 33.8869 153.715 33.9649 153.818 34.0374L157.939 32.103L157.603 31.29L156.734 31.6264C156.603 31.4209 156.509 31.2246 156.453 31.0377C156.453 31.0357 156.452 31.0336 156.452 31.0316C156.43 30.9523 156.413 30.8634 156.4 30.765C156.38 30.609 156.369 30.4289 156.369 30.2247L156.425 29.2154L156.706 25.4307L156.734 24.87C156.734 23.3748 156.313 22.2815 155.472 21.59C154.631 20.8797 153.547 20.5246 152.22 20.5246C150.931 20.5246 149.566 20.833 148.127 21.4498L146.837 25.4868L147.594 25.7671L148.043 24.814C148.264 24.7174 148.52 24.6361 148.812 24.5701ZM159.53 28.7669C159.53 30.5424 159.95 31.8601 160.791 32.7198C161.632 33.5608 162.931 33.9814 164.688 33.9814L167.099 30.477C167.099 30.7788 167.116 31.0622 167.151 31.3272C167.215 31.817 167.338 32.2438 167.52 32.6077C167.528 32.6237 167.536 32.6396 167.545 32.6554C167.826 33.175 168.257 33.5889 168.837 33.8973L172.734 31.6825L172.426 30.8415L171.585 31.262C171.563 31.2332 171.541 31.2037 171.52 31.1735C171.417 31.0245 171.33 30.8594 171.259 30.6782C171.231 30.6078 171.206 30.5349 171.184 30.4596C171.177 30.4376 171.17 30.4153 171.164 30.3929C171.125 30.218 171.097 29.9952 171.078 29.7243C171.061 29.4741 171.052 29.183 171.052 28.851V20.9451H166.09V21.7582L167.099 21.8423V29.1874L165.894 30.3088C165.69 30.3036 165.497 30.2816 165.316 30.2428C164.847 30.1429 164.451 29.9312 164.127 29.6079C163.698 29.1407 163.483 28.4865 163.483 27.6455V20.9451H158.492V21.7582L159.53 21.8423V28.7669ZM165.287 28.5002C165.318 28.529 165.354 28.5568 165.398 28.5823L165.497 28.4897V23.2468C165.347 23.187 165.208 23.1052 165.085 23.0056V27.6455C165.085 28.1728 165.206 28.4003 165.287 28.5002ZM173.959 32.6637L172.922 32.7478V33.5608H178.949V32.7478L177.912 32.6637L178.052 14.385L177.66 13.7121L172.473 15.2821L172.754 16.0951L173.819 15.8708L173.959 32.6637ZM179.583 23.6405L179.525 31.2525C179.668 31.3076 179.801 31.3826 179.921 31.4739C179.788 30.8467 179.732 30.1791 179.732 29.4958V23.6405H179.583ZM152.697 28.823L150.538 29.3276C150.493 29.475 150.461 29.6533 150.443 29.8626C150.432 29.9983 150.426 30.1471 150.426 30.3088C150.426 30.8695 150.538 31.29 150.762 31.5704C150.823 31.6408 150.887 31.7018 150.954 31.7533C151.136 31.893 151.343 31.9629 151.575 31.9629C151.791 31.9629 152.032 31.9043 152.297 31.7873C152.398 31.7423 152.504 31.6887 152.613 31.6264L152.585 31.0377L152.613 30.4209L152.697 28.823ZM185.792 30.477C185.455 30.0658 185.287 29.4117 185.287 28.5146V22.0667L188.623 22.1226V20.9451H185.343L185.484 17.0763L184.558 16.796C184.489 16.876 184.418 16.9557 184.347 17.0351C184.189 17.2112 184.028 17.3857 183.863 17.5586C183.286 18.1641 182.668 18.751 182.007 19.3191C181.512 19.7435 181.036 20.1159 180.579 20.4365C180.244 20.6721 179.918 20.8796 179.603 21.0592C179.554 21.0873 179.505 21.1147 179.456 21.1414V22.0385H181.334V29.4958C181.334 31.0097 181.643 32.1124 182.26 32.8039C182.895 33.4767 183.904 33.8132 185.287 33.8132L188.708 31.3461L188.231 30.505L187.194 31.0938C187.193 31.0938 187.193 31.0938 187.192 31.0938C186.935 31.0936 186.7 31.053 186.488 30.972C186.221 30.8705 185.989 30.7055 185.792 30.477Z" fill="#212529"/>
<path fill-rule="evenodd" clip-rule="evenodd" d="M69.2708 4.20831C69.2708 4.09326 69.364 4 69.4791 4H76.2534C76.3684 4 76.4617 4.09326 76.4617 4.20831V6.4358C76.4617 6.49198 76.439 6.54577 76.3988 6.58498C76.3586 6.62418 76.3042 6.64548 76.2481 6.64404L75.8003 6.63256C75.6906 6.62975 75.6019 6.5423 75.5975 6.43265L75.5786 5.9603C74.978 5.53172 74.4613 5.19513 74.0275 4.94869V11.2822L74.7289 11.291C74.8429 11.2925 74.9346 11.3853 74.9346 11.4993V11.9012C74.9346 12.0162 74.8413 12.1095 74.7263 12.1095H71.0062C70.8911 12.1095 70.7978 12.0162 70.7978 11.9012V11.4993C70.7978 11.3853 70.8895 11.2925 71.0035 11.291L71.7049 11.2822V4.94869C71.2711 5.19513 70.7545 5.53172 70.1539 5.9603L70.135 6.43265C70.1306 6.5423 70.0419 6.62975 69.9322 6.63256L69.4844 6.64404C69.4282 6.64548 69.3739 6.62418 69.3337 6.58498C69.2934 6.54577 69.2708 6.49198 69.2708 6.4358V4.20831ZM69.6874 4.41662V6.22208L69.7265 6.22108L69.7417 5.8419C69.7442 5.77781 69.7762 5.71847 69.8283 5.68105C70.6174 5.11413 71.2792 4.69135 71.8118 4.41662H69.6874ZM72.0144 4.41662C72.0169 4.41798 72.0193 4.41939 72.0217 4.42086C72.0837 4.45868 72.1215 4.52606 72.1215 4.59869V11.4879C72.1215 11.5902 72.0477 11.6754 71.9502 11.6929H73.7823C73.6848 11.6754 73.6109 11.5902 73.6109 11.4879V4.59869C73.6109 4.52606 73.6488 4.45868 73.7108 4.42086C73.7132 4.41939 73.7156 4.41798 73.718 4.41662H72.0144ZM73.9207 4.41662C74.4532 4.69135 75.1151 5.11413 75.9042 5.68105C75.9563 5.71847 75.9882 5.77781 75.9908 5.8419L76.006 6.22108L76.0451 6.22208V4.41662H73.9207ZM76.6622 4.20831C76.6622 4.09326 76.7555 4 76.8706 4H79.9018C80.0168 4 80.1101 4.09326 80.1101 4.20831V4.61018C80.1101 4.72356 80.0194 4.81613 79.906 4.81844L79.5475 4.82576V7.66274H81.7028V4.82576L81.3443 4.81844C81.2309 4.81613 81.1402 4.72356 81.1402 4.61018V4.20831C81.1402 4.09326 81.2335 4 81.3485 4H84.3797C84.4948 4 84.588 4.09326 84.588 4.20831V4.61018C84.588 4.72356 84.4974 4.81613 84.384 4.81844L84.0254 4.82576V11.2838L84.384 11.2911C84.4974 11.2934 84.588 11.3859 84.588 11.4993V11.9012C84.588 12.0162 84.4948 12.1095 84.3797 12.1095H81.3485C81.2335 12.1095 81.1402 12.0162 81.1402 11.9012V11.4993C81.1402 11.3859 81.2309 11.2934 81.3443 11.2911L81.7028 11.2838V8.50418H79.5475V11.2838L79.906 11.2911C80.0194 11.2934 80.1101 11.3859 80.1101 11.4993V11.9012C80.1101 12.0162 80.0168 12.1095 79.9018 12.1095H76.8706C76.7555 12.1095 76.6622 12.0162 76.6622 11.9012V11.4993C76.6622 11.3859 76.7529 11.2934 76.8663 11.2911L77.2249 11.2838V4.82576L76.8663 4.81844C76.7529 4.81613 76.6622 4.72356 76.6622 4.61018V4.20831ZM77.4701 4.41662C77.5677 4.43408 77.6415 4.5194 77.6415 4.62166V11.4879C77.6415 11.5901 77.5677 11.6754 77.4701 11.6929H79.3023C79.2046 11.6754 79.1309 11.5901 79.1309 11.4879V8.29588C79.1309 8.18083 79.2241 8.08757 79.3392 8.08757H81.9111C82.0262 8.08757 82.1194 8.18083 82.1194 8.29588V11.4879C82.1194 11.5901 82.0457 11.6754 81.948 11.6929H83.7802C83.6826 11.6754 83.6088 11.5901 83.6088 11.4879V4.62166C83.6088 4.5194 83.6826 4.43408 83.7802 4.41662H81.948C82.0457 4.43408 82.1194 4.5194 82.1194 4.62166V7.87104C82.1194 7.98609 82.0262 8.07935 81.9111 8.07935H79.3392C79.2241 8.07935 79.1309 7.98609 79.1309 7.87104V4.62166C79.1309 4.5194 79.2046 4.43408 79.3023 4.41662H77.4701ZM84.8097 4.20831C84.8097 4.09326 84.9029 4 85.018 4H90.6097C90.7247 4 90.818 4.09326 90.818 4.20831V6.4358C90.818 6.49198 90.7953 6.54577 90.7551 6.58498C90.7148 6.62418 90.6605 6.64548 90.6043 6.64404L90.1565 6.63256C90.0468 6.62975 89.9581 6.5423 89.9537 6.43265L89.9352 5.9693C89.214 5.52761 88.468 5.14712 87.6971 4.82773L87.7164 7.50199H89.6567C89.7717 7.50199 89.865 7.59525 89.865 7.7103V8.13513C89.865 8.25017 89.7717 8.34344 89.6567 8.34344H87.7193L87.7388 11.275C88.573 10.9394 89.3817 10.5413 90.1649 10.0804L90.1834 9.61945C90.1878 9.5098 90.2765 9.42235 90.3862 9.41954L90.834 9.40806C90.8901 9.40662 90.9445 9.42792 90.9847 9.46713C91.0249 9.50633 91.0476 9.56013 91.0476 9.6163V11.9012C91.0476 12.0162 90.9544 12.1095 90.8393 12.1095H85.018C84.9029 12.1095 84.8097 12.0162 84.8097 11.9012V11.4993C84.8097 11.3859 84.9004 11.2934 85.0137 11.2911L85.3723 11.2838V4.82576L85.0137 4.81844C84.9004 4.81613 84.8097 4.72356 84.8097 4.61018V4.20831ZM85.6175 4.41662C85.7151 4.43408 85.7889 4.5194 85.7889 4.62166V11.4879C85.7889 11.5901 85.7151 11.6754 85.6175 11.6929H87.3576C87.3364 11.66 87.3245 11.6214 87.3242 11.5811L87.3012 8.13652C87.3009 8.08103 87.3227 8.02769 87.3618 7.98832C87.4009 7.94896 87.4541 7.92682 87.5096 7.92682H89.4484V7.91861H87.5096C87.3951 7.91861 87.3021 7.82625 87.3012 7.7118L87.2783 4.51982C87.278 4.48315 87.2874 4.44769 87.3048 4.41662H85.6175ZM87.7929 4.41662C88.6411 4.76386 89.4598 5.1828 90.2489 5.67331C90.3075 5.70976 90.3443 5.77291 90.3471 5.8419L90.3622 6.22108L90.4014 6.22208V4.41662H87.7929ZM87.8157 11.6929H90.631V9.83002L90.5919 9.83102L90.5767 10.2102C90.5739 10.2805 90.5357 10.3447 90.4753 10.3808C89.619 10.8916 88.7325 11.3291 87.8157 11.6929Z" fill="white"/>
</g>
<defs>
<linearGradient id="paint0_linear_6_281" x1="48.798" y1="24.2151" x2="24.8756" y2="38.0267" gradientUnits="userSpaceOnUse">
<stop stop-color="#E19A3D"/>
<stop offset="0.15625" stop-color="#E1A049"/>
<stop offset="0.661458" stop-color="#F1E087"/>
</linearGradient>
<linearGradient id="paint1_linear_6_281" x1="1.85811" y1="24.2151" x2="25.7805" y2="38.0267" gradientUnits="userSpaceOnUse">
<stop stop-color="#E19A3D"/>
<stop offset="0.15625" stop-color="#E1A049"/>
<stop offset="0.661458" stop-color="#F1E087"/>
</linearGradient>
<linearGradient id="paint2_linear_6_281" x1="43.1258" y1="9.13822" x2="28.0578" y2="36.3001" gradientUnits="userSpaceOnUse">
<stop stop-color="#E19A3D"/>
<stop offset="0.15625" stop-color="#E1A049"/>
<stop offset="0.661458" stop-color="#F1E087"/>
</linearGradient>
<linearGradient id="paint3_linear_6_281" x1="8.13581" y1="9.13822" x2="23.2038" y2="36.3001" gradientUnits="userSpaceOnUse">
<stop stop-color="#E19A3D"/>
<stop offset="0.15625" stop-color="#E1A049"/>
<stop offset="0.661458" stop-color="#F1E087"/>
</linearGradient>
<linearGradient id="paint4_linear_6_281" x1="25.2464" y1="1.68829" x2="25.2464" y2="36.7003" gradientUnits="userSpaceOnUse">
<stop stop-color="#E19A3D"/>
<stop offset="0.15625" stop-color="#E1A049"/>
<stop offset="0.661458" stop-color="#F1E087"/>
</linearGradient>
<radialGradient id="paint5_angular_6_281" cx="0" cy="0" r="1" gradientUnits="userSpaceOnUse" gradientTransform="translate(25.5368 24.5252) rotate(90) scale(11.1416 14.1)">
<stop stop-color="#F1E087"/>
<stop offset="0.713542" stop-color="#E1A049"/>
<stop offset="1" stop-color="#99631B"/>
</radialGradient>
<radialGradient id="paint6_angular_6_281" cx="0" cy="0" r="1" gradientUnits="userSpaceOnUse" gradientTransform="translate(15.9362 18.267) rotate(29.4057) scale(11.0204 10.6367)">
<stop offset="0.0346599" stop-color="#542D09"/>
<stop offset="0.764517" stop-color="#E1A049"/>
</radialGradient>
<linearGradient id="paint7_linear_6_281" x1="80.0895" y1="1.78226" x2="80.7007" y2="13.3943" gradientUnits="userSpaceOnUse">
<stop stop-color="#99631B"/>
<stop offset="1" stop-color="#E2A04A"/>
</linearGradient>
<linearGradient id="paint8_linear_6_281" x1="159.372" y1="13.7122" x2="159.372" y2="34.0375" gradientUnits="userSpaceOnUse">
<stop stop-color="#E1A049"/>
<stop offset="0.359375" stop-color="#F1E087"/>
<stop offset="0.578125" stop-color="#E1A049"/>
<stop offset="1" stop-color="#99631B"/>
</linearGradient>
<linearGradient id="paint9_linear_6_281" x1="95.3686" y1="13.3943" x2="94.7574" y2="39.6742" gradientUnits="userSpaceOnUse">
<stop stop-color="#E1A049"/>
<stop offset="0.359375" stop-color="#F1E087"/>
<stop offset="0.578125" stop-color="#E1A049"/>
<stop offset="1" stop-color="#99631B"/>
</linearGradient>
<clipPath id="clip0_6_281">
<rect width="193" height="40" fill="white"/>
</clipPath>
</defs>
</svg>
